<svg xmlns:dc="http://purl.org/dc/elements/1.1/" xmlns:cc="http://creativecommons.org/ns#" xmlns:rdf="http://www.w3.org/1999/02/22-rdf-syntax-ns#" xmlns:svg="http://www.w3.org/2000/svg" xmlns="http://www.w3.org/2000/svg" version="1.1" viewBox="0 0 164.59734 164.59734" id="svg2"> <defs id="defs4"></defs><g transform="translate(-143.01623,-61.785754)" id="layer1"> <g transform="matrix(0.16795646,0,0,0.16795646,143.01623,61.785754)" id="g4029"> <circle cx="490" cy="490" r="440" id="circle4019" style="fill:none;stroke:#000000;stroke-width:100"></circle> <path d="m 486,215 c -130,0 -239,91 -267,213 l 131,0 c 24,-52 76,-88 136,-88 83,0 150,67 150,150 0,83 -67,150 -150,150 -60,0 -112,-36 -136,-87 l -131,0 C 247,674 356,765 486,765 638,765 761,642 761,490 761,338 638,215 486,215 z" id="path4021"></path> </g> </g> </svg>
