<?xml version="1.0" encoding="UTF-8" standalone="no"?>
<svg
   xmlns:dc="http://purl.org/dc/elements/1.1/"
   xmlns:cc="http://creativecommons.org/ns#"
   xmlns:rdf="http://www.w3.org/1999/02/22-rdf-syntax-ns#"
   xmlns:svg="http://www.w3.org/2000/svg"
   xmlns="http://www.w3.org/2000/svg"
   xmlns:xlink="http://www.w3.org/1999/xlink"
   xmlns:sodipodi="http://sodipodi.sourceforge.net/DTD/sodipodi-0.dtd"
   xmlns:inkscape="http://www.inkscape.org/namespaces/inkscape"
   viewBox="0 0 250 333"
   id="svg3206"
   version="1.1"
   inkscape:version="0.91 r13725"
   sodipodi:docname="kello.svg"
   inkscape:export-filename="/home/pesasa/gitrepos/linux-kurssi/content/images/kello.png"
   inkscape:export-xdpi="265"
   inkscape:export-ydpi="265">
  <defs
     id="defs3208">
    <linearGradient
       id="linearGradient4460-4">
      <stop
         style="stop-color:#c69435;stop-opacity:1"
         offset="0"
         id="stop4462-2" />
      <stop
         id="stop4464-0"
         offset="1"
         style="stop-color:#fff7b1;stop-opacity:1;" />
    </linearGradient>
    <linearGradient
       y2="366.0173"
       x2="487.54608"
       y1="503.76364"
       x1="453.87885"
       gradientTransform="translate(-200.84901,-277.40944)"
       gradientUnits="userSpaceOnUse"
       id="linearGradient7139"
       xlink:href="#linearGradient7891"
       inkscape:collect="always" />
    <linearGradient
       y2="465.45734"
       x2="474.61081"
       y1="363.90082"
       x1="301.08075"
       gradientTransform="matrix(1,0,0,-1,3.34e-4,980.95021)"
       gradientUnits="userSpaceOnUse"
       id="linearGradient7137"
       xlink:href="#linearGradient7891"
       inkscape:collect="always" />
    <linearGradient
       y2="398.35553"
       x2="396.19061"
       y1="577.33307"
       x1="538.76672"
       gradientTransform="matrix(-1,0,0,1,570.65099,-277.40944)"
       gradientUnits="userSpaceOnUse"
       id="linearGradient7135"
       xlink:href="#linearGradient7891"
       inkscape:collect="always" />
    <linearGradient
       y2="461.41507"
       x2="459.25015"
       y1="525.59192"
       x1="334.22742"
       gradientTransform="translate(-200.84901,-277.40944)"
       gradientUnits="userSpaceOnUse"
       id="linearGradient7133"
       xlink:href="#linearGradient7891"
       inkscape:collect="always" />
    <linearGradient
       gradientUnits="userSpaceOnUse"
       y2="260.4375"
       x2="607.3869"
       y1="612.4375"
       x1="286.1131"
       id="linearGradient6858"
       xlink:href="#linearGradient4460-4"
       inkscape:collect="always" />
    <linearGradient
       gradientUnits="userSpaceOnUse"
       y2="267.4375"
       x2="600.651"
       y1="494.4375"
       x1="353.849"
       id="linearGradient6850"
       xlink:href="#linearGradient4460-4"
       inkscape:collect="always" />
    <linearGradient
       gradientUnits="userSpaceOnUse"
       y2="438.4375"
       x2="334.8869"
       y1="305.4375"
       x1="555.6131"
       id="linearGradient6842"
       xlink:href="#linearGradient6836"
       inkscape:collect="always" />
    <mask
       id="mask6826"
       maskUnits="userSpaceOnUse">
      <path
         sodipodi:nodetypes="czczczczc"
         inkscape:connector-curvature="0"
         id="path6828"
         d="m 634.3618,291.70669 c 0,0 106.6759,-12.39575 165.3882,-12.39575 58.7123,0 165.38819,12.39575 165.38819,12.39575 0,0 10.74872,123.02196 10.74872,190.73081 0,67.70885 -10.74872,190.7308 -10.74872,190.7308 0,0 -106.67589,12.39576 -165.38819,12.39576 -58.7123,0 -165.3882,-12.39576 -165.3882,-12.39576 0,0 -10.74872,-123.02195 -10.74872,-190.7308 0,-67.70885 10.74872,-190.73081 10.74872,-190.73081 z"
         style="fill:#ffffff;fill-opacity:1;fill-rule:nonzero;stroke:none" />
    </mask>
    <radialGradient
       gradientUnits="userSpaceOnUse"
       gradientTransform="matrix(1,0,0,1.1665026,0,-81.659117)"
       r="121.76873"
       fy="424.42822"
       fx="445.75"
       cy="424.42822"
       cx="445.75"
       id="radialGradient4237"
       xlink:href="#linearGradient4231"
       inkscape:collect="always" />
    <filter
       height="1.2509173"
       y="-0.12545863"
       width="1.1896137"
       x="-0.094806828"
       id="filter4169"
       inkscape:collect="always"
       color-interpolation-filters="sRGB">
      <feGaussianBlur
         id="feGaussianBlur4171"
         stdDeviation="2.8619305"
         inkscape:collect="always" />
    </filter>
    <filter
       height="1.1370953"
       y="-0.068547659"
       width="1.5088893"
       x="-0.25444466"
       id="filter4153"
       inkscape:collect="always"
       color-interpolation-filters="sRGB">
      <feGaussianBlur
         id="feGaussianBlur4155"
         stdDeviation="3.0282136"
         inkscape:collect="always" />
    </filter>
    <filter
       height="1.216"
       y="-0.108"
       width="1.216"
       x="-0.108"
       id="filter4093"
       inkscape:collect="always"
       color-interpolation-filters="sRGB">
      <feGaussianBlur
         id="feGaussianBlur4095"
         stdDeviation="0.945"
         inkscape:collect="always" />
    </filter>
    <radialGradient
       gradientTransform="matrix(1.7167165,4.5224497e-7,-4.513885e-7,1.7133708,-133.84961,-147.65211)"
       gradientUnits="userSpaceOnUse"
       r="10.5"
       fy="205.58797"
       fx="188.00195"
       cy="205.58797"
       cx="188.00195"
       id="radialGradient4053"
       xlink:href="#linearGradient4047"
       inkscape:collect="always" />
    <linearGradient
       gradientUnits="userSpaceOnUse"
       y2="401.4375"
       x2="461.8869"
       y1="675.4375"
       x1="258.6131"
       id="linearGradient4045"
       xlink:href="#linearGradient4039"
       inkscape:collect="always" />
    <inkscape:path-effect
       is_visible="true"
       id="path-effect4086"
       effect="spiro">
      <inkscape:path-effect
         is_visible="true"
         id="path-effect4090"
         effect="spiro">
        <inkscape:path-effect
           is_visible="true"
           id="path-effect4094"
           effect="spiro">
          <inkscape:path-effect
             effect="spiro"
             id="path-effect4098"
             is_visible="true">
            <linearGradient
               id="linearGradient4039">
              <stop
                 id="stop4041"
                 offset="0"
                 style="stop-color:#28170b;stop-opacity:1;" />
              <stop
                 id="stop4043"
                 offset="1"
                 style="stop-color:#573218;stop-opacity:1;" />
            </linearGradient>
            <linearGradient
               id="linearGradient4047">
              <stop
                 id="stop4049"
                 offset="0"
                 style="stop-color:#f6e79d;stop-opacity:1" />
              <stop
                 id="stop4051"
                 offset="1"
                 style="stop-color:#c69435;stop-opacity:1" />
            </linearGradient>
            <linearGradient
               id="linearGradient4231">
              <stop
                 id="stop4233"
                 offset="0"
                 style="stop-color:#e6e6e6;stop-opacity:1;" />
              <stop
                 id="stop4235"
                 offset="1"
                 style="stop-color:#c6cccc;stop-opacity:1;" />
            </linearGradient>
            <inkscape:path-effect
               is_visible="true"
               id="path-effect6633"
               effect="spiro">
              <inkscape:path-effect
                 is_visible="true"
                 id="path-effect6641"
                 effect="spiro">
                <inkscape:path-effect
                   is_visible="true"
                   id="path-effect6645"
                   effect="spiro">
                  <inkscape:path-effect
                     is_visible="true"
                     id="path-effect6649"
                     effect="spiro">
                    <inkscape:path-effect
                       is_visible="true"
                       id="path-effect6653"
                       effect="spiro">
                      <inkscape:path-effect
                         is_visible="true"
                         id="path-effect6657"
                         effect="spiro">
                        <inkscape:path-effect
                           is_visible="true"
                           id="path-effect6661"
                           effect="spiro">
                          <inkscape:path-effect
                             is_visible="true"
                             id="path-effect6665"
                             effect="spiro">
                            <inkscape:path-effect
                               is_visible="true"
                               id="path-effect6669"
                               effect="spiro">
                              <inkscape:path-effect
                                 is_visible="true"
                                 id="path-effect6673"
                                 effect="spiro">
                                <inkscape:path-effect
                                   is_visible="true"
                                   id="path-effect6677"
                                   effect="spiro">
                                <inkscape:path-effect
                                   is_visible="true"
                                   id="path-effect6681"
                                   effect="spiro">
                                <inkscape:path-effect
                                   is_visible="true"
                                   id="path-effect6797"
                                   effect="spiro">
                                <inkscape:path-effect
                                   is_visible="true"
                                   id="path-effect6801"
                                   effect="spiro">
                                <inkscape:path-effect
                                   is_visible="true"
                                   id="path-effect6805"
                                   effect="spiro">
                                <linearGradient
                                   id="linearGradient6836">
                                <stop
                                   id="stop6838"
                                   offset="0"
                                   style="stop-color:#ffffff;stop-opacity:1;" />
                                <stop
                                   id="stop6840"
                                   offset="1"
                                   style="stop-color:#ffffff;stop-opacity:0;" />
                                </linearGradient>
                                <linearGradient
                                   id="linearGradient7891">
                                <stop
                                   style="stop-color:#f6e79c;stop-opacity:1"
                                   offset="0"
                                   id="stop7893" />
                                <stop
                                   style="stop-color:#c69435;stop-opacity:1"
                                   offset="1"
                                   id="stop7895" />
                                </linearGradient>
                                </inkscape:path-effect>
                                </inkscape:path-effect>
                                </inkscape:path-effect>
                                </inkscape:path-effect>
                                </inkscape:path-effect>
                              </inkscape:path-effect>
                            </inkscape:path-effect>
                          </inkscape:path-effect>
                        </inkscape:path-effect>
                      </inkscape:path-effect>
                    </inkscape:path-effect>
                  </inkscape:path-effect>
                </inkscape:path-effect>
              </inkscape:path-effect>
            </inkscape:path-effect>
          </inkscape:path-effect>
        </inkscape:path-effect>
      </inkscape:path-effect>
    </inkscape:path-effect>
  </defs>
  <sodipodi:namedview
     id="base"
     pagecolor="#ffffff"
     bordercolor="#666666"
     borderopacity="1.0"
     inkscape:pageopacity="0.0"
     inkscape:pageshadow="2"
     inkscape:zoom="0.35"
     inkscape:cx="-187.24187"
     inkscape:cy="-116.67187"
     inkscape:document-units="px"
     inkscape:current-layer="layer1"
     showgrid="false"
     fit-margin-top="0"
     fit-margin-left="0"
     fit-margin-right="0"
     fit-margin-bottom="0"
     inkscape:window-width="1450"
     inkscape:window-height="933"
     inkscape:window-x="284"
     inkscape:window-y="39"
     inkscape:window-maximized="0" />
  <metadata
     id="metadata3211">
    <rdf:rdf>
      <cc:work
         rdf:about="">
        <dc:format>image/svg+xml</dc:format>
        <dc:type
           rdf:resource="http://purl.org/dc/dcmitype/StillImage" />
        <dc:title />
      </cc:work>
    </rdf:rdf>
    <rdf:RDF>
      <cc:Work
         rdf:about="">
        <dc:format>image/svg+xml</dc:format>
        <dc:type
           rdf:resource="http://purl.org/dc/dcmitype/StillImage" />
        <dc:title></dc:title>
      </cc:Work>
    </rdf:RDF>
  </metadata>
  <g
     inkscape:label="Layer 1"
     inkscape:groupmode="layer"
     id="layer1"
     transform="translate(-129.38473,-82.741842)">
    <g
       id="g3601"
       transform="matrix(0.6760375,0,0,0.6760375,129.38473,105.32787)">
      <g
         style="display:inline"
         inkscape:label="frame"
         id="layer4">
        <path
           sodipodi:nodetypes="czczczczc"
           inkscape:connector-curvature="0"
           id="rect4067"
           d="m 212.13256,290.40943 c 0,0 111.98378,-13 173.61744,-13 61.63366,0 173.61743,13 173.61743,13 0,0 11.28355,129.01872 11.28355,200.02807 0,71.00936 -11.28355,200.02806 -11.28355,200.02806 0,0 -111.98377,13 -173.61743,13 -61.63366,0 -173.61744,-13 -173.61744,-13 0,0 -11.28355,-129.0187 -11.28355,-200.02806 0,-71.00935 11.28355,-200.02807 11.28355,-200.02807 z"
           style="fill:url(#linearGradient6850);fill-opacity:1;fill-rule:nonzero;stroke:none;display:inline"
           transform="translate(-200.84901,-277.40943)" />
        <path
           style="fill:url(#linearGradient4045);fill-opacity:1;fill-rule:nonzero;stroke:none;display:inline"
           d="m 220.3618,299.70669 c 0,0 106.6759,-12.39575 165.3882,-12.39575 58.7123,0 165.38819,12.39575 165.38819,12.39575 0,0 10.74872,123.02196 10.74872,190.73081 0,67.70885 -10.74872,190.7308 -10.74872,190.7308 0,0 -106.67589,12.39576 -165.38819,12.39576 -58.7123,0 -165.3882,-12.39576 -165.3882,-12.39576 0,0 -10.74872,-123.02195 -10.74872,-190.7308 0,-67.70885 10.74872,-190.73081 10.74872,-190.73081 z"
           id="path4072"
           inkscape:connector-curvature="0"
           sodipodi:nodetypes="czczczczc"
           transform="translate(-200.84901,-277.40943)" />
        <g
           mask="url(#mask6826)"
           transform="translate(-614.84901,-269.40943)"
           id="g6807"
           style="display:inline">
          <path
             style="fill:none;stroke:#784421;stroke-width:1.5;stroke-linecap:butt;stroke-linejoin:miter;stroke-miterlimit:4;stroke-opacity:1;stroke-dasharray:none"
             d="m 660.84901,257.46555 c 6.9688,12.88018 10.17176,27.7694 9.11588,42.37585 -1.05589,14.60645 -6.36702,28.88019 -15.11588,40.62415 -1.16726,1.56686 -2.4181,3.13481 -3,5 -0.61482,1.9707 -0.42363,4.11205 0.079,6.11429 0.50268,2.00224 1.3048,3.91543 1.92095,5.88571 2.20939,7.06496 1.97123,14.66564 1.03376,22.00841 -0.93747,7.34277 -2.55144,14.60495 -3.03376,21.99159 -0.50062,7.66693 0.22506,15.35593 1,23 1.93881,19.12465 4.07974,39.12856 -3,57 -0.66119,1.66904 -1.39968,3.30811 -2,5 -2.02693,5.71253 -2.42683,11.88988 -2.10222,17.94265 0.32461,6.05278 1.35114,12.04259 2.10222,18.05735 2.3182,18.56447 2.00822,37.39945 0,56 -1.11376,10.31588 -2.74533,20.77202 -1,31 0.87101,5.10429 2.56613,10.02441 4,15 6.62196,22.97843 7.65998,47.54487 3,71"
             id="path6631"
             inkscape:path-effect="#path-effect6633"
             inkscape:original-d="m 660.84901,257.46555 c -0.57842,27.09329 -6,57.2716 -6,83 0,1.15673 -3,3.41609 -3,5 0,4.08875 0.26282,8.52564 2,12 3.65647,7.31294 -2,35.57176 -2,44 0,5.96821 3.18947,16.4316 1,23 -5.61474,16.84422 0.51895,39.40526 -3,57 -0.35204,1.7602 -2,3.20495 -2,5 0,10.26553 2.64342,25.42632 0,36 -4.33268,17.3307 0,38.46205 0,56 0,6.40284 -4.65231,23.69538 -1,31 1.64694,3.29388 4,10.34073 4,15 0,12.22075 -0.30753,61.07743 3,71"
             inkscape:connector-curvature="0" />
          <path
             style="fill:none;stroke:#784421;stroke-width:1px;stroke-linecap:butt;stroke-linejoin:miter;stroke-opacity:1"
             d="m 758.84901,244.46555 c -5.62461,28.61616 -5.96536,58.26212 -1,87 0.92236,5.33829 2.02807,10.66363 2.34862,16.07152 0.32055,5.40789 -0.17866,10.96468 -2.34862,15.92848 -0.89584,2.04924 -2.06298,3.96927 -3,6 -3.04832,6.60641 -3.54084,14.12793 -2.98073,21.38211 0.5601,7.25419 2.11633,14.39364 2.98073,21.61789 2.02674,16.93854 0.22816,34.08678 -2,51 -2.9368,22.29231 -6.58998,45.22102 -1,67 2.02474,7.88852 5.26297,15.65001 5.11748,23.79293 -0.0728,4.07146 -1.0428,8.19615 -3.27482,11.60206 -2.23202,3.40591 -5.81228,6.02349 -9.84266,6.60501 -0.5328,0.0769 -1.07233,0.1192 -1.59452,0.24995 -0.5222,0.13074 -1.03555,0.35899 -1.40548,0.75005 -0.29984,0.31696 -0.49079,0.72752 -0.58209,1.15417 -0.0913,0.42666 -0.0866,0.86965 -0.0293,1.30218 0.11461,0.86506 0.43475,1.68909 0.61136,2.54365 0.27166,1.31449 0.19784,2.68536 -0.0925,3.99585 -0.29037,1.31049 -0.79269,2.56577 -1.37432,3.77548 -1.16326,2.41942 -2.65506,4.69179 -3.53314,7.22867 -1.05348,3.04364 -1.17367,6.31766 -1.33896,9.53422 -0.16529,3.21656 -0.40187,6.50132 -1.66104,9.46578 -1.64825,3.88047 -4.87381,6.82858 -7.37229,10.22451 -1.24924,1.69796 -2.33609,3.54905 -2.90009,5.58021 -0.564,2.03115 -0.57263,4.26405 0.27238,6.19528 0.21387,0.48879 0.47951,0.95391 0.68595,1.44588 0.20644,0.49198 0.35403,1.02209 0.31405,1.55412 -0.0319,0.42461 -0.18306,0.83476 -0.39863,1.20196 -0.21558,0.3672 -0.49437,0.69383 -0.79374,0.99662 -0.59875,0.60558 -1.28787,1.12682 -1.80763,1.80142 -0.52748,0.68462 -0.861,1.5073 -1.02692,2.35549 -0.16591,0.84819 -0.16856,1.72253 -0.0769,2.58191 0.18341,1.71877 0.73705,3.37343 1.10378,5.0626 1.1141,5.13161 0.48394,10.48541 -0.60927,15.62151 -1.09321,5.1361 -2.6449,10.18057 -3.39073,15.37849 -1.35731,9.45952 0.0483,19.2989 4,28"
             id="path6639"
             inkscape:path-effect="#path-effect6641"
             inkscape:original-d="m 758.84901,244.46555 c 3.91288,28.74286 0.70505,58.01419 -1,87 -0.57289,9.73918 2.54232,22.67817 0,32 -0.58835,2.15728 -2.45767,3.8307 -3,6 -3.13022,12.5209 0,29.98582 0,43 0,17.5041 -2,33.78999 -2,51 0,18.53613 1.93658,49.3805 -1,67 -0.95967,5.75802 -6.61009,39.68348 -8,42 -0.54233,0.90388 -2.36754,0.15673 -3,1 -0.22727,0.30303 0.15152,4.24243 0,5 -0.90329,4.51647 -5,10.88405 -5,15 0,6.13413 -0.89678,12.69035 -3,19 -2.19658,6.58973 -10,14.37603 -10,22 0,1.05409 1.20672,1.96638 1,3 -0.32686,1.6343 -2.59577,2.3831 -3,4 -0.78024,3.12096 0.52915,6.82512 0,10 -1.77937,10.67623 -4,21.90687 -4,31 0,8.93461 4,19.06328 4,28"
             inkscape:connector-curvature="0" />
          <path
             style="fill:none;stroke:#5b3419;stroke-width:1px;stroke-linecap:butt;stroke-linejoin:miter;stroke-opacity:1"
             d="m 730.84901,724.46555 c 4.7271,-36.24837 8.72817,-72.59142 12,-109 0.27692,-3.08158 0.57411,-6.25416 2,-9 1.20579,-2.32199 3.13458,-4.17183 5.02247,-5.98331 1.88789,-1.81148 3.80514,-3.67765 4.97753,-6.01669 1.28813,-2.56997 1.57868,-5.51932 1.63234,-8.39354 0.0537,-2.87422 -0.10612,-5.77105 0.36766,-8.60646 0.54679,-3.27233 1.94572,-6.3948 4,-9 2.58674,-3.28046 6.10663,-5.66591 9.35054,-8.29835 3.2439,-2.63243 6.365,-5.72638 7.64946,-9.70165 0.66467,-2.0571 0.79996,-4.26154 0.58768,-6.41291 -0.21228,-2.15138 -0.76441,-4.25684 -1.44725,-6.30798 -1.36568,-4.1023 -3.26537,-8.04494 -4.14043,-12.27911 -1.0839,-5.2447 -0.54444,-10.67221 0,-16 4.83854,-47.34901 9.6515,-95.85259 -2,-142 -5.28214,-20.92064 -13.89741,-41.07229 -16.70177,-62.46644 -1.40218,-10.69708 -1.3062,-21.69276 1.40487,-32.13516 2.71107,-10.4424 8.15186,-20.32367 16.2969,-27.3984 4.65161,-4.04036 10.13158,-7.12284 16,-9"
             id="path6643"
             inkscape:path-effect="#path-effect6645"
             inkscape:original-d="m 730.84901,724.46555 c 0.42198,-37.64636 -3.74497,-77.51006 12,-109 1.10442,-2.20884 0.67285,-7.00927 2,-9 2.95106,-4.42658 7.58555,-7.17109 10,-12 2.26831,-4.53661 -0.33625,-12.3275 2,-17 1.8091,-3.61819 4,-4.78669 4,-9 0,-3.05425 13.91708,-11.83416 17,-18 3.04634,-6.09268 -2.73947,-20.47894 -5,-25 -1.46468,-2.92935 0,-12.76392 0,-16 0,-46.47174 -2,-95.38178 -2,-142 0,-40.34046 1,-83.63679 1,-122 0,-3.18601 13.2239,-10.38805 16,-9"
             inkscape:connector-curvature="0" />
          <path
             sodipodi:nodetypes="cssssssssssc"
             style="fill:none;stroke:#784421;stroke-width:2;stroke-linecap:butt;stroke-linejoin:miter;stroke-miterlimit:4;stroke-opacity:1;stroke-dasharray:none"
             d="m 811.84901,248.46555 c 2.88613,25.92934 2.21117,52.25264 -2,78 -0.97601,5.9674 -2.14498,11.95505 -2,18 0.032,1.33392 0.12794,2.67184 0,4 -0.20984,2.17833 -1.02133,4.26995 -2.1439,6.14851 -1.12257,1.87857 -2.5512,3.55708 -4.06497,5.13748 -3.02752,3.1608 -6.45785,6.01099 -8.79113,9.71401 -3.55409,5.64049 -4.17225,12.68296 -3.5042,19.31624 0.66806,6.63328 2.50944,13.09156 3.5042,19.68376 3.19454,21.16992 -2.42548,42.59812 -3,64 -0.31326,11.66948 0.87791,23.32696 1,35 0.20935,20.01699 -2.72484,39.99504 -2,60 0.33884,9.35172 1.47613,18.65682 2,28 1.23429,22.01349 -0.92704,44.30448 3,66 3.19215,17.6355 10.43095,34.52603 21,49"
             id="path6647"
             inkscape:path-effect="#path-effect6649"
             inkscape:original-d="m 811.84901,248.46555 c 1.36709,25.52949 3.0145,52.9275 -2,78 -1.2754,6.37698 -2,11.35701 -2,18 0,1.33333 1.33333,4 0,4 -1.19686,0 -13.72189,14.60945 -15,21 -2.3866,11.93299 0,26.72159 0,39 0,21.66228 -0.88674,42.86737 -3,64 -1.03415,10.34146 4.42912,24.71263 1,35 -3.7247,11.17411 -2,46.06884 -2,60 0,7.86128 3.53983,20.30085 2,28 -4.69854,23.49272 6.97613,42.14322 3,66 -2.47066,14.82394 21,34.47006 21,49"
             inkscape:connector-curvature="0" />
          <path
             style="fill:none;stroke:#7d4722;stroke-width:1px;stroke-linecap:butt;stroke-linejoin:miter;stroke-opacity:1"
             d="m 832.84901,714.46555 c -7.46086,-69.48656 -5.77514,-139.94971 5,-209 2.3806,-15.25557 5.19808,-30.89463 2,-46 -0.91173,-4.30633 -2.31458,-8.60947 -2,-13 0.27243,-3.80231 1.81542,-7.37666 3,-11 5.11857,-15.65649 3.61614,-32.60752 2,-49 -0.82035,-8.32084 -1.65609,-16.6459 -2,-25 -0.39767,-9.65989 -0.13677,-19.33289 0,-29 0.40102,-28.34504 -0.26628,-56.70519 -2,-85"
             id="path6651"
             inkscape:path-effect="#path-effect6653"
             inkscape:original-d="m 832.84901,714.46555 c 2.49073,-69.65017 -1.58621,-139.84484 5,-209 1.4693,-15.4276 -0.0423,-30.68235 2,-46 3.03026,-22.72696 -2,7.51826 -2,-13 0,-3.80058 2.5803,-7.22266 3,-11 1.81858,-16.36723 -0.70219,-32.78686 2,-49 1.39063,-8.34379 -0.40915,-17.04576 -2,-25 -1.76454,-8.82272 0,-20.03237 0,-29 0,-10.91174 4.32278,-78.67722 -2,-85"
             inkscape:connector-curvature="0" />
          <path
             style="fill:none;stroke:#784421;stroke-width:1px;stroke-linecap:butt;stroke-linejoin:miter;stroke-opacity:1"
             d="m 879.84901,245.46555 0,128 c 0,14.34359 -1.7474,28.76325 0,43 1.43524,11.69351 5.96143,22.78879 8.10932,34.3726 1.07394,5.79191 1.54703,11.74715 0.71744,17.57907 -0.8296,5.83192 -3.01942,11.55348 -6.82676,16.04833 -1.08128,1.27653 -2.3055,2.47804 -3,4 -0.56853,1.24589 -0.7463,2.64531 -0.67091,4.01271 0.0754,1.3674 0.39523,2.71024 0.7856,4.0229 0.78075,2.62532 1.8594,5.22556 1.88531,7.96439 0.0292,3.0842 -1.27723,6.00154 -2,9 -1.17646,4.88063 -0.80192,9.98788 -0.31522,14.98464 0.4867,4.99677 1.07741,10.05314 0.31522,15.01536 -0.96201,6.2631 -4.01372,11.98281 -6,18 -3.19874,9.69018 -3.60243,20.03716 -4.76214,30.17554 -1.1597,10.13837 -3.25464,20.55811 -9.23786,28.82446 -1.41289,1.95203 -3.04413,3.78799 -4,6 -1.4088,3.26017 -1.19984,6.96014 -0.97439,10.50452 0.22544,3.54437 0.41525,7.24935 -1.02561,10.49548 -1.35694,3.05705 -3.99249,5.32479 -6,8 -4.04113,5.3852 -5.44842,12.37462 -5.27705,19.10528 0.17137,6.73065 1.79288,13.3275 3.27705,19.89472 1.87356,8.29017 3.54091,16.62694 5,25"
             id="path6655"
             inkscape:path-effect="#path-effect6657"
             inkscape:original-d="m 879.84901,245.46555 c 0,42.66667 0,85.33333 0,128 0,13.96743 -1.54315,29.11165 0,43 1.81149,16.30344 5.51418,52.77189 2,68 -0.37477,1.62399 -2.65078,2.37033 -3,4 -4.82894,22.53508 2,0.24318 2,16 0,3.07318 -1.59384,5.95378 -2,9 -1.28984,9.67379 1.91554,20.42229 0,30 -1.21801,6.09007 -5.37415,11.74152 -6,18 -1.89156,18.91561 -5.9967,41.39273 -14,59 -0.99466,2.18825 -3.17855,3.74102 -4,6 -2.22245,6.11174 -0.4474,14.78959 -2,21 -0.80845,3.23381 -4.68694,4.93619 -6,8 -1.57283,3.66993 -3.07667,36.30832 -2,39 2.6468,6.617 8.4685,18.06301 5,25"
             inkscape:connector-curvature="0" />
          <path
             sodipodi:nodetypes="cssssssssssc"
             style="fill:none;stroke:#864c25;stroke-width:1px;stroke-linecap:butt;stroke-linejoin:miter;stroke-opacity:1"
             d="m 889.84901,712.46555 c 16.78035,-46.88645 18.90343,-98.90197 6,-147 -2.33773,-8.71396 -5.15822,-17.31939 -6.74662,-26.20055 -1.58841,-8.88116 -1.90139,-18.17471 0.74662,-26.79945 0.86236,-2.80875 2.02874,-5.51644 2.90258,-8.32163 0.87384,-2.8052 1.45488,-5.76205 1.09742,-8.67837 -0.29584,-2.4136 -1.21926,-4.69709 -2,-7 -3.4995,-10.32228 -4.14043,-21.9177 0,-32 0.96469,-2.34911 2.17686,-4.59763 3,-7 1.30954,-3.82193 1.5956,-7.93023 1.40058,-11.96557 -0.19502,-4.03534 -0.85775,-8.03101 -1.40058,-12.03443 -3.99253,-29.44504 -1.50716,-59.32376 0,-89 0.85673,-16.86907 1.44841,-34.04759 7,-50 3.05394,-8.77546 7.56647,-17.03266 10,-26 1.58739,-5.84939 2.26466,-11.94482 2,-18"
             id="path6659"
             inkscape:path-effect="#path-effect6661"
             inkscape:original-d="m 889.84901,712.46555 c -1.4356,-48.88254 6,-97.92634 6,-147 0,-17.15683 -8.26479,-36.01406 -6,-53 0.76938,-5.77035 4,-11.17858 4,-17 0,-2.4267 -1.699,-4.59203 -2,-7 -1.09592,-8.76739 -1.86,-23.32001 0,-32 0.53191,-2.48224 2.46809,-4.51776 3,-7 1.52868,-7.13386 0,-16.64113 0,-24 0,-28.9883 -3.38422,-60.23415 0,-89 1.97502,-16.78768 4.45917,-33.48461 7,-50 0.56916,-3.69952 10,-25.1763 10,-26 0,-6.6073 2,-11.23271 2,-18"
             inkscape:connector-curvature="0" />
          <path
             sodipodi:nodetypes="csssssssssssssssssc"
             style="fill:none;stroke:#784421;stroke-width:2;stroke-linecap:butt;stroke-linejoin:miter;stroke-miterlimit:4;stroke-opacity:1;stroke-dasharray:none"
             d="m 937.84901,263.46555 c -2.08135,12.20312 -2.41916,24.70227 -1,37 0.54146,4.69204 1.33867,9.39282 1.07197,14.10846 -0.13335,2.35782 -0.53672,4.71165 -1.35083,6.92848 -0.8141,2.21683 -2.04817,4.29624 -3.72114,5.96306 -1.00346,0.99977 -2.16537,1.85551 -3,3 -0.83177,1.14057 -1.29721,2.52515 -1.4451,3.92904 -0.14789,1.40388 0.012,2.82835 0.3476,4.19952 0.67121,2.74236 2.02511,5.25973 3.0975,7.87144 3.83821,9.34759 4.02103,19.79348 3.10587,29.85687 -0.91515,10.06339 -2.86961,20.04097 -3.10587,30.14313 -0.16372,7.00033 0.49976,14.01561 0,21 -1.05193,14.70129 -7.36329,28.84795 -17,40 -1.94292,2.24843 -4.02362,4.38998 -5.73099,6.82211 -1.70737,2.43213 -3.04498,5.21475 -3.26901,8.17789 -0.12625,1.66978 0.10317,3.34277 0.24921,5.01094 0.14604,1.66817 0.20522,3.37735 -0.24921,4.98906 -0.5304,1.88115 -1.72055,3.49696 -2.91297,5.04557 -1.19242,1.54861 -2.43121,3.11324 -3.08703,4.95443 -0.67634,1.8988 -0.68606,3.96948 -0.51541,5.9779 0.17065,2.00843 0.51372,4.00644 0.51541,6.0221 0.003,3.28829 -0.90225,6.50869 -1.97113,9.61841 -1.06888,3.10972 -2.31259,6.17226 -3.02887,9.38159 -1.60213,7.17839 -0.48666,14.66293 -1,22 -0.56641,8.0957 -3.11071,15.93338 -4,24 -0.87741,7.95883 -0.13078,15.99402 0,24 0.1829,11.19677 -0.88596,22.58483 -5,33 -0.93268,2.36119 -2.01665,4.65946 -3,7 -6.19296,14.74036 -8.2912,31.17655 -6,47"
             id="path6663"
             inkscape:path-effect="#path-effect6665"
             inkscape:original-d="m 937.84901,263.46555 c 0.6372,12.51101 -1,24.88213 -1,37 0,2.89731 -2.95207,23.85621 -4,27 -0.44721,1.34164 -3,1.58579 -3,3 0,4.66378 1.21233,11.27401 2,16 3.1508,18.90483 0,40.86089 0,60 0,6.29493 1.22427,14.87863 0,21 -2.67379,13.36894 -10.62789,28.0523 -17,40 -0.31956,0.59918 -8.65693,13.54196 -9,15 -0.76346,3.24473 0.95783,6.80725 0,10 -1.11701,3.72336 -4.97718,6.24967 -6,10 -1.05247,3.85906 0.36214,8.01643 0,12 -3.07037,33.77409 -0.50623,-12.45638 -5,19 -1.03816,7.26713 -0.0895,14.71578 -1,22 -1.00597,8.04772 -3.23107,15.92619 -4,24 -0.74171,7.78799 1.10958,16.23296 0,24 -1.27533,8.92728 -2.59282,24.57486 -5,33 -0.39052,1.36684 -3,5.11438 -3,7 0,3.4967 -14.0211,65.46836 -6,47"
             inkscape:connector-curvature="0" />
          <path
             sodipodi:nodetypes="csssssssssssc"
             inkscape:path-effect="#path-effect6669"
             inkscape:original-d="m 942.84901,712.46555 c 0.6972,-12.85006 -0.42336,-25.38688 -2,-38 -1.35213,-10.81707 0.69233,-21.53866 2,-32 1.55872,-12.4698 8,-26.42778 8,-39 0,-42.96144 -10.72552,-87.47033 -6,-130 1.88103,-16.92928 -2.05077,-35.22076 1,-52 1.03697,-5.70333 7.75834,-17.61946 9,-23 2.25812,-9.78519 -0.22753,-17.59045 5,-27 3.22399,-5.80318 10.79405,-9.76431 12,-17 0.55049,-3.30296 -1.47038,-7.82226 -2,-11 -0.77363,-4.64177 2.14287,-13.71427 0,-18 -1.39452,-2.78903 -5.17843,-3.71371 -6,-7 -2.43247,-9.72989 -3.47819,-29.04362 1,-38"
             style="fill:none;stroke:#784421;stroke-width:1px;stroke-linecap:butt;stroke-linejoin:miter;stroke-opacity:1"
             d="m 942.84901,712.46555 c -1.3081,-12.62203 -1.97591,-25.31039 -2,-38 -0.0203,-10.69764 0.41895,-21.41982 2,-32 1.9617,-13.12747 5.66423,-25.93391 8,-39 7.67016,-42.90617 0.40971,-86.88751 -6,-130 -2.57715,-17.33424 -4.942,-35.51333 1,-52 2.79678,-7.75995 7.37393,-14.9133 9,-23 0.91131,-4.53207 0.85798,-9.19439 1.23659,-13.80164 0.37862,-4.60725 1.24687,-9.32059 3.76341,-13.19836 1.92322,-2.96351 4.6903,-5.25916 7.11505,-7.82854 1.21238,-1.28469 2.35047,-2.65304 3.23529,-4.18189 0.88482,-1.52885 1.51193,-3.22851 1.64966,-4.98957 0.14589,-1.86545 -0.25706,-3.72873 -0.74169,-5.53604 -0.48462,-1.8073 -1.05586,-3.6038 -1.25831,-5.46396 -0.32843,-3.01769 0.32659,-6.04222 0.73446,-9.0502 0.40787,-3.00799 0.54398,-6.19664 -0.73446,-8.9498 -1.30161,-2.80306 -3.87304,-4.75782 -6,-7 -4.84294,-5.10528 -7.55456,-12.17263 -7.36945,-19.20709 0.18512,-7.03446 3.2647,-13.94941 8.36945,-18.79291"
             id="path6667"
             inkscape:connector-curvature="0" />
          <path
             style="fill:none;stroke:#784421;stroke-width:1px;stroke-linecap:butt;stroke-linejoin:miter;stroke-opacity:1"
             d="m 787.84901,246.46555 c -3.05902,11.75108 -4.74082,23.86005 -5,36 -0.19242,9.01318 0.39205,18.09288 -1,27 -1.43006,9.15034 -4.90089,17.83295 -7.6583,26.67436 -2.75741,8.84141 -4.82718,18.18413 -3.3417,27.32564 0.49302,3.03402 1.37051,5.99133 2,9 2.53541,12.11812 0.99306,24.65938 0,37 -1.97975,24.60195 -1.72966,49.32001 -2,74 -0.28527,26.04335 -1.15371,52.11108 -4,78 -0.43882,3.99134 -0.92509,7.98531 -1,12 -0.20622,11.05267 2.7038,21.94937 3,33 0.16082,5.99999 -0.45035,12.01478 0,18 0.51078,6.78837 2.37401,13.38948 4,20 1.40535,5.71347 2.64719,11.56515 2.23427,17.43442 -0.20646,2.93463 -0.83341,5.85426 -2.0184,8.54693 -1.18499,2.69268 -2.93973,5.15481 -5.21587,7.01865 -0.96551,0.79062 -2.03883,1.49089 -2.75869,2.51025 -0.35993,0.50967 -0.6234,1.09787 -0.6907,1.71818 -0.0673,0.62032 0.0734,1.27359 0.44939,1.77157 0.28683,0.37994 0.68999,0.65124 1.06814,0.94041 0.37816,0.28918 0.7504,0.61949 0.93186,1.05959 0.11894,0.28847 0.1478,0.60934 0.11206,0.91931 -0.0357,0.30998 -0.13401,0.61028 -0.2625,0.89462 -0.25699,0.56869 -0.6272,1.0775 -0.94735,1.61318 -0.32015,0.53568 -0.58928,1.10665 -0.73647,1.7131 -0.14719,0.60645 -0.16574,1.23573 -0.16574,1.85979 l 0,27"
             id="path6671"
             inkscape:path-effect="#path-effect6673"
             inkscape:original-d="m 787.84901,246.46555 c 2.27416,12.47417 -3.51152,24.09217 -5,36 -1.11708,8.93663 0.11708,18.06338 -1,27 -2.26774,18.14196 -11,35.6884 -11,54 0,3.07318 1.59384,5.95378 2,9 1.5792,11.84399 0,25.06368 0,37 0,24.48416 1.0302,49.75839 -2,74 -3.27659,26.2127 -4,51.659 -4,78 0,3.06678 -1.31898,9.12916 -1,12 1.17329,10.55966 1.22817,22.36904 3,33 0.96208,5.77248 -1.41419,12.34322 0,18 1.39386,5.57544 4,14.96566 4,20 0,10.01605 -2.55023,23.20093 -5,33 -0.25143,1.0057 -3,5.78768 -3,6 0,0.94281 1.47702,1.21554 2,2 1.59697,2.39545 -2,5.48073 -2,7 0,8.33977 0,17.92742 0,27"
             inkscape:connector-curvature="0" />
          <path
             style="fill:none;stroke:#784421;stroke-width:1px;stroke-linecap:butt;stroke-linejoin:miter;stroke-opacity:1"
             d="m 690.84901,728.46555 c 1.63373,-16.75467 3.96979,-33.44084 7,-50 3.36551,-18.39144 7.58513,-36.61766 11,-55 7.1136,-38.29268 10.67479,-78.03053 2,-116 -1.36934,-5.99359 -3.04028,-11.92734 -4,-18 -2.65794,-16.81815 0.22378,-33.97459 0,-51 -0.21527,-16.37825 -3.29429,-32.95503 0,-49 0.68407,-3.3318 1.64068,-6.61773 2,-10 0.88509,-8.33134 -1.89436,-16.62245 -2,-25 -0.0852,-6.75669 1.56692,-13.39648 3,-20 4.9126,-22.63695 7.34732,-46.07925 4,-69 -0.34044,-2.33114 -0.73296,-4.76106 0,-7 0.47743,-1.45837 1.4309,-2.75663 2.6796,-3.64856 1.2487,-0.89192 2.78602,-1.37281 4.3204,-1.35144"
             id="path6675"
             inkscape:path-effect="#path-effect6677"
             inkscape:original-d="m 690.84901,728.46555 c 3.87149,-15.88093 5.09441,-33.48491 7,-50 2.12898,-18.45117 9.20389,-36.44024 11,-55 3.50556,-36.22414 5.1462,-79.81867 2,-116 -0.53246,-6.12325 -3.32125,-11.89123 -4,-18 -1.83577,-16.52196 0,-34.37757 0,-51 0,-16.03653 -1.67633,-33.07487 0,-49 0.35586,-3.38067 2,-6.60065 2,-10 0,-24.11325 -5.54973,3.39784 -2,-25 3.95783,-31.66261 3,11.17102 3,-20 0,-25.03653 -0.67346,-45.6327 4,-69 0.36299,-1.81493 -0.78321,-5.43358 0,-7 0.87265,-1.7453 5.07092,-4.03546 7,-5"
             inkscape:connector-curvature="0" />
          <path
             style="fill:none;stroke:#663a1d;stroke-width:1px;stroke-linecap:butt;stroke-linejoin:miter;stroke-opacity:1"
             d="m 657.84901,264.46555 c 2.97985,8.28778 3.82576,17.33289 2.43431,26.02949 -1.39146,8.69659 -5.01733,17.02622 -10.43431,23.97051 -1.94916,2.49872 -4.18712,4.93699 -5,8 -0.47224,1.77946 -0.42504,3.65353 -0.28076,5.48893 0.14428,1.8354 0.38245,3.67282 0.28076,5.51107 -0.21063,3.80749 -1.85386,7.36301 -3,11 -2.37113,7.52418 -2.63476,15.55938 -2.15651,23.43381 0.47826,7.87444 1.67641,15.69186 2.15651,23.56619 1.30678,21.43296 -2.71533,42.77996 -6,64 -7.3174,47.27275 -11.04104,95.26103 -8,143 0.84898,13.32752 2.22447,26.64736 2,40 -0.14019,8.33936 -0.90336,16.70852 0,25 0.43933,4.03237 1.26968,8.01006 2,12 2.71523,14.83413 4.05616,29.91952 4,45"
             id="path6679"
             inkscape:path-effect="#path-effect6681"
             inkscape:original-d="m 657.84901,264.46555 c -0.69623,16.96094 -4.2957,33.33066 -8,50 -0.81091,3.64909 -4.33825,4.69125 -5,8 -0.71197,3.55983 1.01158,6.95369 0,11 -0.6873,2.74918 -3,8.80939 -3,11 0,8.89299 3.25515,40.48971 0,47 -10.01322,20.02643 -1.54191,41.70956 -6,64 -8.93683,44.68416 -8,96.18605 -8,143 0,12.47675 2,26.61591 2,40 0,5.63057 -2.5938,19.8124 0,25 1.56289,3.12579 0.32005,9.48007 2,12 6.64162,9.96243 4,31.66908 4,45"
             inkscape:connector-curvature="0" />
          <path
             style="fill:#4e2d15;fill-opacity:1;stroke:#784421;stroke-width:1px;stroke-linecap:butt;stroke-linejoin:miter;stroke-opacity:1"
             d="m 762,150.05612 c 3.48841,13.84253 2.42046,28.79382 -3,42 -1.07529,2.61979 -2.3266,5.20627 -2.81109,7.9964 -0.24225,1.39506 -0.28651,2.83477 -0.0126,4.22397 0.27393,1.38919 0.87605,2.72753 1.82367,3.77963 0.76528,0.84966 1.74627,1.50045 2.82035,1.8928 1.07407,0.39235 2.23902,0.52724 3.37643,0.40938 2.2748,-0.23571 4.39703,-1.49859 5.80322,-3.30218 1.00421,-1.288 1.65613,-2.8297 2.01119,-4.42385 0.35505,-1.59415 0.42088,-3.24238 0.32846,-4.87297 -0.18485,-3.26119 -0.99333,-6.45517 -1.33965,-9.70318 -1.01351,-9.50521 1.94854,-18.94103 5,-28 0.90846,-2.69698 1.83746,-5.43878 1.93081,-8.28312 0.0467,-1.42217 -0.12105,-2.86038 -0.59371,-4.20252 -0.47266,-1.34215 -1.25849,-2.58627 -2.3371,-3.51436 -0.91191,-0.78465 -2.0039,-1.32542 -3,-2 -1.00081,-0.67777 -1.90282,-1.48936 -2.85883,-2.22898 -0.956,-0.73963 -1.98553,-1.41679 -3.14117,-1.77102 -1.55901,-0.47787 -3.30242,-0.32195 -4.7519,0.42496 -1.44948,0.74691 -2.58826,2.07618 -3.1039,3.62311 -0.51564,1.54693 -0.40218,3.2936 0.30926,4.76082 0.71143,1.46722 2.01261,2.63799 3.54654,3.19111 z"
             id="path6795"
             inkscape:path-effect="#path-effect6797"
             inkscape:original-d="m 762,150.05612 c -7.37746,12.49116 -3,28.54913 -3,42 0,6.79423 -1.30786,16 -1,16 0.0212,0 11.70008,-0.70007 12,-1 2.8082,-2.8082 1,-16.015 1,-19 0,-9.89912 7.73965,-17.0414 5,-28 -0.0754,-0.30164 -4.97144,-16 -1,-16 0.43406,0 -1.36471,0.45294 -3,-2 -1.90601,-2.85901 -0.5536,-6.7232 -6,-4 -3.43569,1.71785 -4.69525,8.52378 -4,12 z"
             inkscape:connector-curvature="0"
             transform="translate(200.84901,277.40943)" />
          <path
             style="fill:none;stroke:#784421;stroke-width:1px;stroke-linecap:butt;stroke-linejoin:miter;stroke-opacity:1"
             d="m 473,432.05612 c -1.43314,-5.57874 -2.43707,-11.26769 -3,-17 -0.71785,-7.30989 -0.71765,-14.69009 0,-22 0.62669,-6.38342 1.79719,-12.69968 3,-19 0.36024,-1.88697 0.72819,-3.78913 1.4708,-5.56084 0.7426,-1.77172 1.89702,-3.42604 3.5292,-4.43916 1.49581,-0.92848 3.3332,-1.26288 5.07507,-1.00709 1.74187,0.25578 3.38177,1.08562 4.68131,2.27336 1.29954,1.18775 2.26342,2.72324 2.85433,4.38166 0.59091,1.65842 0.81531,3.4371 0.74649,5.1963 -0.13766,3.51841 -1.42565,6.89968 -3.0577,10.0197 -1.63205,3.12002 -3.61691,6.04301 -5.2995,9.13607 -4.41603,8.11784 -6.68254,17.39263 -6.5082,26.63223 0.17433,9.2396 2.78909,18.42229 7.5082,26.36777"
             id="path6799"
             inkscape:path-effect="#path-effect6801"
             inkscape:original-d="m 473,432.05612 c -4.02975,-6.44813 -3,-9.47977 -3,-17 0,-6.30255 1.97452,-16.07644 0,-22 -0.68998,-2.06995 -0.57501,-15.42499 3,-19 3.05991,-3.05991 5,-11.14291 5,-10 0,14.32928 -1.44907,17.10186 5,30 2.05936,4.11873 1,43.22714 1,53"
             inkscape:connector-curvature="0"
             transform="translate(200.84901,277.40943)"
             sodipodi:nodetypes="csssssc" />
          <path
             style="fill:#4b2b15;fill-opacity:1;stroke:#784421;stroke-width:1px;stroke-linecap:butt;stroke-linejoin:miter;stroke-opacity:1"
             d="m 469,-28.943878 c -2.89131,8.7339 -2.52946,18.503906 1,26.9999998 2.0025,4.8203991 4.96208,9.1944705 7,14.0000002 4.90442,11.564884 4.11694,24.831 1,37 -0.4224,1.649118 -0.88791,3.301339 -1,5 -0.16683,2.528163 0.45496,5.033941 1.05435,7.495683 0.59939,2.461742 1.18525,4.98201 0.94565,7.504317 -0.22781,2.398199 -1.1878,4.654376 -1.98387,6.928036 -0.79606,2.273661 -1.4429,4.701074 -1.01613,7.071964 0.15131,0.840602 0.43436,1.650806 0.6635,2.473607 0.22914,0.822801 0.4059,1.675105 0.3365,2.526393 -0.0999,1.224924 -0.70483,2.359955 -1.46571,3.325083 -0.76089,0.965127 -1.68029,1.79112 -2.53429,2.674917 -1.13946,1.179222 -2.17302,2.476527 -2.92278,3.934881 -0.74977,1.458353 -1.20834,3.087077 -1.16594,4.726327 0.0424,1.63925 0.60978,3.2865 1.70815,4.5041 0.54918,0.60879 1.22532,1.10545 1.97888,1.42852 0.75357,0.32307 1.58432,0.47057 2.40169,0.40617 1.43345,-0.11294 2.76741,-0.87594 3.75062,-1.92514 0.98321,-1.04921 1.64089,-2.36772 2.0967,-3.73145 0.91162,-2.72746 1.06365,-5.68181 2.15268,-8.343408 1.30251,-3.183339 3.86704,-5.752449 5,-9 0.66843,-1.916023 0.80337,-3.984839 0.66649,-6.009491 -0.13687,-2.024651 -0.53775,-4.020772 -0.91688,-6.014314 -0.37912,-1.993543 -0.7384,-4.000607 -0.79039,-6.029214 -0.052,-2.028606 0.2144,-4.093592 1.04078,-5.946981 0.79224,-1.776822 2.0651,-3.293922 3,-5 1.97811,-3.60982 2.34981,-7.917847 1.87554,-12.006708 C 492.40127,40.960553 491.1364,37.012422 490,33.056122 487.26687,23.540914 485.23733,13.756366 485.04751,3.8582274 484.85769,-6.0399116 486.5692,-16.090787 491,-24.943878 c 1.40952,-2.816325 3.08612,-5.4989 5,-8"
             id="path6803"
             inkscape:path-effect="#path-effect6805"
             inkscape:original-d="m 469,-28.943878 c 3.79861,4.868686 -1.53392,21.9321645 1,26.9999998 2.11287,4.2257457 5.37897,9.1369125 7,14.0000002 2.486,7.457997 1,27.514106 1,37 0,1.228742 -1.66968,2.990968 -1,5 1.13368,3.401034 2.80716,12.578535 2,15 -1.62872,4.886146 -3,8.907437 -3,14 0,1.680108 1,3.644917 1,5 0,2.978591 -2.65022,3.975336 -4,6 -0.60206,0.903086 1.07909,14.539548 2,14.999998 10.03741,5.01871 6.56538,-11.130766 8,-13.999998 0.76124,-1.522473 5,-7.640174 5,-9 0,-6.816822 -2.4019,-16.794298 0,-24 0.49634,-1.489007 3,-3.426915 3,-5 0,-6.002098 -1,-16.384458 -1,-24 0,-20.50481 1,-43.27269 1,-58 0,-1.569414 2.30479,-2.609588 5,-8"
             inkscape:connector-curvature="0"
             transform="translate(200.84901,277.40943)" />
        </g>
        <path
           sodipodi:nodetypes="czczczczc"
           inkscape:connector-curvature="0"
           id="path4074"
           d="m 253.69542,338.14806 c 0,0 85.17561,-9.89742 132.05458,-9.89742 46.87897,0 132.05457,9.89742 132.05457,9.89742 0,0 8.58234,98.22715 8.58234,152.28945 0,54.06228 -8.58234,152.28943 -8.58234,152.28943 0,0 -85.1756,9.89742 -132.05457,9.89742 -46.87897,0 -132.05458,-9.89742 -132.05458,-9.89742 0,0 -8.58234,-98.22715 -8.58234,-152.28943 0,-54.0623 8.58234,-152.28945 8.58234,-152.28945 z"
           style="fill:url(#linearGradient6858);fill-opacity:1;fill-rule:nonzero;stroke:none;display:inline"
           transform="translate(-200.84901,-277.40943)" />
        <g
           transform="translate(-200.84901,-277.44704)"
           id="g7127"
           style="display:inline">
          <path
             sodipodi:nodetypes="czccc"
             inkscape:connector-curvature="0"
             id="path4076-8"
             d="m 308.03531,69.401472 c 0,0 8.0026,92.639578 8.0026,143.626598 0,50.98699 -8.0026,143.62659 -8.0026,143.62659 -70.04343,-81.46194 -122.27124,-143.62659 -122.27124,-143.62659 0,0 50.34826,-60.36833 122.27124,-143.626598 z"
             style="fill:url(#linearGradient7133);fill-opacity:1;fill-rule:nonzero;stroke:none;display:inline"
             transform="translate(200.84901,277.40943)" />
          <path
             style="fill:url(#linearGradient7135);fill-opacity:1;fill-rule:nonzero;stroke:none;display:inline"
             d="m 61.76667,69.401472 c 0,0 -8.0026,92.639578 -8.0026,143.626598 0,50.98699 8.0026,143.62659 8.0026,143.62659 70.04343,-81.46194 122.27124,-143.62659 122.27124,-143.62659 0,0 -50.34826,-60.36833 -122.27124,-143.626598 z"
             id="path7111"
             inkscape:connector-curvature="0"
             sodipodi:nodetypes="czccc"
             transform="translate(200.84901,277.40943)" />
          <path
             style="fill:url(#linearGradient7137);fill-opacity:1;fill-rule:nonzero;stroke:none;display:inline"
             d="m 262.61601,634.1393 c 0,0 79.42201,9.33442 123.13432,9.33442 43.71231,0 123.13432,-9.33442 123.13432,-9.33442 -78.47828,-93.65502 -123.13432,-144.5876 -123.13432,-144.5876 0,0 -41.74094,47.54529 -123.13432,144.5876 z"
             id="path7115"
             inkscape:connector-curvature="0"
             sodipodi:nodetypes="czccc" />
          <path
             sodipodi:nodetypes="czccc"
             inkscape:connector-curvature="0"
             id="path4076-7"
             d="m 61.766666,69.401472 c 0,0 79.422014,-9.33442 123.134324,-9.33442 43.71231,0 123.13432,9.33442 123.13432,9.33442 -78.47828,93.655018 -123.13432,144.587598 -123.13432,144.587598 0,0 -41.74094,-47.54529 -123.134324,-144.587598 z"
             style="fill:url(#linearGradient7139);fill-opacity:1;fill-rule:nonzero;stroke:none;display:inline"
             transform="translate(200.84901,277.40943)" />
        </g>
      </g>
      <g
         style="display:inline"
         transform="translate(-200.84901,-277.40943)"
         id="layer1-8"
         inkscape:label="quadrant">
        <path
           style="fill:url(#radialGradient4237);fill-opacity:1;stroke:none"
           d="m 271.41218,357.06214 c 0,0 73.74824,-8.66819 114.33782,-8.66819 40.58959,0 114.33782,8.66819 114.33782,8.66819 0,0 7.43091,86.02751 7.43091,133.37535 0,47.34783 -7.43091,133.37537 -7.43091,133.37537 0,0 -73.74823,8.66817 -114.33782,8.66817 -40.58958,0 -114.33782,-8.66817 -114.33782,-8.66817 0,0 -7.43091,-86.02754 -7.43091,-133.37537 0,-47.34784 7.43091,-133.37535 7.43091,-133.37535 z"
           id="path4037"
           inkscape:connector-curvature="0"
           sodipodi:nodetypes="czczczczc" />
        <g
           id="text4149"
           style="font-size:41.770504px;font-style:normal;font-variant:normal;font-weight:normal;font-stretch:normal;text-align:start;line-height:125%;letter-spacing:0px;word-spacing:0px;writing-mode:lr-tb;text-anchor:start;fill:#000000;fill-opacity:1;stroke:none;font-family:Liberation Sans;-inkscape-font-specification:Liberation Sans"
           transform="scale(0.99998621,1.0000138)">
          <path
             id="path7927"
             style="font-weight:bold;text-align:center;text-anchor:middle;font-family:Liberation Serif;-inkscape-font-specification:Liberation Serif Bold"
             d="m 378.06613,391.25042 4.75221,0.4895 0,1.75404 -15.3784,0 0,-1.75404 4.73181,-0.4895 0,-20.6201 -4.71142,1.55007 0,-1.73363 7.7096,-4.52786 2.8962,0 0,25.33152"
             inkscape:connector-curvature="0" />
          <path
             id="path7929"
             style="font-weight:bold;text-align:center;text-anchor:middle;font-family:Liberation Serif;-inkscape-font-specification:Liberation Serif Bold"
             d="m 404.07071,393.49396 -17.33639,0 0,-3.8548 c 1.16935,-1.25093 2.25033,-2.3659 3.24293,-3.3449 0.99258,-0.99259 1.88999,-1.9104 2.69223,-2.75343 0.81583,-0.85661 1.53648,-1.66564 2.16195,-2.4271 0.62546,-0.77502 1.14216,-1.57045 1.55008,-2.3863 0.4215,-0.82941 0.74104,-1.71323 0.9586,-2.65145 0.21754,-0.93818 0.32632,-2.00556 0.32633,-3.20213 -1e-5,-0.82941 -0.10879,-1.55005 -0.32633,-2.16195 -0.21756,-0.62545 -0.5099,-1.14214 -0.87701,-1.55008 -0.35354,-0.42148 -0.76826,-0.73422 -1.24415,-0.9382 -0.47591,-0.20393 -0.979,-0.30591 -1.50928,-0.30594 -0.84303,3e-5 -1.51609,0.0884 -2.01918,0.26515 -0.5031,0.17679 -0.96541,0.44193 -1.38691,0.79543 l -0.87702,3.95678 -1.77443,0 0,-6.22071 c 1.08777,-0.24472 2.14835,-0.44868 3.18174,-0.61187 1.04697,-0.17674 2.18233,-0.26512 3.40609,-0.26514 3.00496,2e-5 5.30288,0.61869 6.89376,1.85601 1.60445,1.23737 2.40668,2.9982 2.4067,5.2825 -2e-5,1.08779 -0.12919,2.07359 -0.38752,2.95738 -0.25836,0.87024 -0.63908,1.69287 -1.14216,2.46789 -0.48951,0.77505 -1.10139,1.52969 -1.83562,2.26393 -0.73426,0.73426 -1.58408,1.5093 -2.54947,2.32511 -0.95181,0.81584 -2.01239,1.69966 -3.18173,2.65145 -1.16937,0.95181 -2.4339,2.03278 -3.79361,3.24293 l 13.4204,0 0,4.60944"
             inkscape:connector-curvature="0" />
        </g>
        <g
           id="text4153"
           style="font-size:41.770504px;font-style:normal;font-variant:normal;font-weight:normal;font-stretch:normal;text-align:start;line-height:125%;letter-spacing:0px;word-spacing:0px;writing-mode:lr-tb;text-anchor:start;fill:#000000;fill-opacity:1;stroke:none;font-family:Liberation Sans;-inkscape-font-specification:Liberation Sans"
           transform="scale(0.99998621,1.0000138)">
          <path
             id="path7932"
             style="font-weight:bold;text-align:center;text-anchor:middle;font-family:Liberation Serif;-inkscape-font-specification:Liberation Serif Bold"
             d="m 447.66775,396.98919 4.75221,0.4895 0,1.75404 -15.3784,0 0,-1.75404 4.73181,-0.4895 0,-20.6201 -4.71141,1.55007 0,-1.73363 7.70959,-4.52786 2.8962,0 0,25.33152"
             inkscape:connector-curvature="0" />
        </g>
        <g
           id="text4157"
           style="font-size:41.770504px;font-style:normal;font-variant:normal;font-weight:normal;font-stretch:normal;text-align:start;line-height:125%;letter-spacing:0px;word-spacing:0px;writing-mode:lr-tb;text-anchor:start;fill:#000000;fill-opacity:1;stroke:none;font-family:Liberation Sans;-inkscape-font-specification:Liberation Sans"
           transform="scale(0.99998621,1.0000138)">
          <path
             id="path7935"
             style="font-weight:bold;text-align:center;text-anchor:middle;font-family:Liberation Serif;-inkscape-font-specification:Liberation Serif Bold"
             d="m 487.01895,441.418 -17.33639,0 0,-3.8548 c 1.16936,-1.25093 2.25033,-2.3659 3.24293,-3.3449 0.99259,-0.99259 1.89,-1.9104 2.69224,-2.75343 0.81582,-0.85661 1.53647,-1.66564 2.16195,-2.42709 0.62546,-0.77503 1.14215,-1.57046 1.55008,-2.38631 0.4215,-0.82941 0.74103,-1.71322 0.9586,-2.65144 0.21754,-0.93819 0.32632,-2.00557 0.32633,-3.20214 -10e-6,-0.8294 -0.10879,-1.55005 -0.32633,-2.16195 -0.21757,-0.62544 -0.50991,-1.14214 -0.87702,-1.55008 -0.35354,-0.42148 -0.76825,-0.73422 -1.24414,-0.9382 -0.47591,-0.20393 -0.97901,-0.30591 -1.50929,-0.30594 -0.84303,3e-5 -1.51609,0.0884 -2.01918,0.26515 -0.5031,0.17679 -0.9654,0.44193 -1.38691,0.79543 l -0.87702,3.95678 -1.77443,0 0,-6.22071 c 1.08777,-0.24472 2.14835,-0.44867 3.18174,-0.61187 1.04698,-0.17673 2.18234,-0.26512 3.40609,-0.26514 3.00496,2e-5 5.30288,0.6187 6.89377,1.85601 1.60444,1.23737 2.40668,2.9982 2.40669,5.2825 -10e-6,1.08779 -0.12919,2.07359 -0.38751,2.95739 -0.25837,0.87023 -0.63909,1.69286 -1.14217,2.46788 -0.48951,0.77505 -1.10138,1.5297 -1.83561,2.26393 -0.73427,0.73426 -1.58409,1.5093 -2.54947,2.32512 -0.95182,0.81584 -2.0124,1.69965 -3.18174,2.65144 -1.16937,0.95181 -2.4339,2.03279 -3.79361,3.24293 l 13.4204,0 0,4.60944"
             inkscape:connector-curvature="0" />
        </g>
        <g
           id="text4161"
           style="font-size:41.770504px;font-style:normal;font-variant:normal;font-weight:normal;font-stretch:normal;text-align:start;line-height:125%;letter-spacing:0px;word-spacing:0px;writing-mode:lr-tb;text-anchor:start;fill:#000000;fill-opacity:1;stroke:none;font-family:Liberation Sans;-inkscape-font-specification:Liberation Sans"
           transform="scale(0.99998621,1.0000138)">
          <path
             id="path7938"
             style="font-weight:bold;text-align:center;text-anchor:middle;font-family:Liberation Serif;-inkscape-font-specification:Liberation Serif Bold"
             d="m 491.22708,496.61066 c -2e-5,1.23735 -0.22437,2.34552 -0.67306,3.32451 -0.44872,0.9654 -1.10819,1.78803 -1.97839,2.46789 -0.85663,0.66626 -1.91041,1.17615 -3.16134,1.52968 -1.25095,0.35353 -2.67865,0.53029 -4.28311,0.53029 -1.38692,0 -2.72624,-0.0816 -4.01796,-0.24475 -1.29174,-0.14957 -2.46789,-0.33993 -3.52847,-0.57108 l -0.24474,-6.62862 1.8764,0 1.06058,4.38509 c 0.43511,0.24475 0.9722,0.4759 1.61127,0.69345 0.65266,0.20396 1.35291,0.30594 2.10076,0.30594 0.89741,0 1.67244,-0.14957 2.32512,-0.44871 0.65265,-0.29913 1.19654,-0.71385 1.63166,-1.24414 0.43509,-0.53028 0.75463,-1.16255 0.9586,-1.8968 0.21754,-0.73425 0.32632,-1.53648 0.32633,-2.4067 -10e-6,-0.97899 -0.12239,-1.79482 -0.36712,-2.44749 -0.24477,-0.66625 -0.5779,-1.19654 -0.9994,-1.59087 -0.42152,-0.40791 -0.92461,-0.70024 -1.50928,-0.87702 -0.57109,-0.19035 -1.18296,-0.30592 -1.83562,-0.34673 l -2.36591,-0.14277 0,-2.46788 2.28433,-0.16317 c 1.21014,-0.0816 2.10075,-0.52347 2.67184,-1.32572 0.58467,-0.81582 0.87701,-2.03956 0.87702,-3.67124 -10e-6,-0.82941 -0.10199,-1.55005 -0.30594,-2.16195 -0.19037,-0.61185 -0.46231,-1.12174 -0.81583,-1.52968 -0.33994,-0.40789 -0.75465,-0.70703 -1.24414,-0.89741 -0.48951,-0.20394 -1.0198,-0.30592 -1.59087,-0.30594 -0.73425,2e-5 -1.33933,0.1156 -1.81522,0.34673 -0.46231,0.21758 -0.90422,0.45553 -1.32572,0.71385 l -0.87702,3.95677 -1.77443,0 0,-6.2207 c 0.48949,-0.12235 0.97899,-0.23792 1.46849,-0.34673 0.4895,-0.10875 0.99939,-0.19713 1.52968,-0.26514 0.53029,-0.0816 1.08777,-0.14275 1.67246,-0.18356 0.58467,-0.0544 1.21693,-0.0816 1.8968,-0.0816 3.00496,3e-5 5.28929,0.55071 6.85297,1.65206 1.56366,1.10139 2.3455,2.79424 2.34552,5.07854 -2e-5,0.85664 -0.1156,1.65888 -0.34673,2.4067 -0.21757,0.73427 -0.5575,1.38693 -1.01979,1.95799 -0.46232,0.5711 -1.0538,1.0538 -1.77443,1.4481 -0.70707,0.38074 -1.55009,0.64588 -2.52907,0.79544 2.33869,0.28555 4.07233,0.9994 5.20091,2.14155 1.12855,1.14217 1.69283,2.71944 1.69285,4.73181"
             inkscape:connector-curvature="0" />
        </g>
        <g
           id="text4165"
           style="font-size:41.770504px;font-style:normal;font-variant:normal;font-weight:normal;font-stretch:normal;text-align:start;line-height:125%;letter-spacing:0px;word-spacing:0px;writing-mode:lr-tb;text-anchor:start;fill:#000000;fill-opacity:1;stroke:none;font-family:Liberation Sans;-inkscape-font-specification:Liberation Sans"
           transform="scale(0.99998621,1.0000138)">
          <path
             id="path7941"
             style="font-weight:bold;text-align:center;text-anchor:middle;font-family:Liberation Serif;-inkscape-font-specification:Liberation Serif Bold"
             d="m 484.02757,561.64304 0,5.40487 -5.48645,0 0,-5.40487 -11.31965,0 0,-3.32451 12.31904,-18.76409 4.48706,0 0,17.90747 2.73303,0 0,4.18113 -2.73303,0 m -5.48645,-12.27825 c -2e-5,-0.3535 0.007,-0.72743 0.0204,-1.12176 0.0136,-0.3943 0.0272,-0.78182 0.0408,-1.16256 0.0272,-0.3943 0.0476,-0.76142 0.0612,-1.10137 0.0272,-0.35351 0.0544,-0.66624 0.0816,-0.93821 l -8.1379,12.42102 7.93395,0 0,-8.09712"
             inkscape:connector-curvature="0" />
        </g>
        <g
           id="text4169"
           style="font-size:41.770504px;font-style:normal;font-variant:normal;font-weight:normal;font-stretch:normal;text-align:start;line-height:125%;letter-spacing:0px;word-spacing:0px;writing-mode:lr-tb;text-anchor:start;fill:#000000;fill-opacity:1;stroke:none;font-family:Liberation Sans;-inkscape-font-specification:Liberation Sans"
           transform="scale(0.99998621,1.0000138)">
          <path
             id="path7944"
             style="font-weight:bold;text-align:center;text-anchor:middle;font-family:Liberation Serif;-inkscape-font-specification:Liberation Serif Bold"
             d="m 444.0067,591.04327 c 1.56366,2e-5 2.93697,0.15638 4.11994,0.4691 1.19654,0.31275 2.19593,0.79545 2.99818,1.4481 0.80221,0.65268 1.40729,1.4889 1.81522,2.50868 0.42149,1.0062 0.63225,2.20955 0.63227,3.61005 -2e-5,1.29173 -0.19718,2.46109 -0.59148,3.50807 -0.39434,1.04698 -0.99941,1.94439 -1.81522,2.69224 -0.81585,0.74784 -1.84923,1.32572 -3.10016,1.73363 -1.23735,0.40792 -2.69905,0.61188 -4.38508,0.61188 -1.38692,0 -2.72624,-0.0816 -4.01797,-0.24475 -1.29173,-0.14957 -2.46789,-0.33993 -3.52846,-0.57108 l -0.24475,-6.62862 1.87641,0 1.06058,4.38508 c 0.21755,0.12238 0.48269,0.24476 0.79543,0.36713 0.31273,0.12237 0.64586,0.23115 0.99939,0.32633 0.36712,0.0816 0.74104,0.15637 1.12177,0.22435 0.39431,0.0544 0.77503,0.0816 1.14216,0.0816 0.85661,0 1.57726,-0.14957 2.16195,-0.44871 0.59827,-0.31273 1.08097,-0.74104 1.4481,-1.28493 0.38071,-0.55748 0.65265,-1.21695 0.81583,-1.97839 0.17675,-0.77503 0.26513,-1.63165 0.26515,-2.56987 -2e-5,-1.01977 -0.0884,-1.91719 -0.26515,-2.69224 -0.17678,-0.77502 -0.46232,-1.42089 -0.85662,-1.93759 -0.39433,-0.51668 -0.91102,-0.9042 -1.55008,-1.16256 -0.62548,-0.25833 -1.40052,-0.38751 -2.32511,-0.38752 -0.40793,10e-6 -0.77505,0.0272 -1.10137,0.0816 -0.31275,0.0408 -0.59829,0.102 -0.85663,0.18357 -0.24475,0.0816 -0.4759,0.16997 -0.69345,0.26514 -0.21756,0.0952 -0.42832,0.18358 -0.63227,0.26514 l -2.03958,0 0,-14.03227 14.27703,0 0,4.54825 -12.0131,0 0,7.1793 c 0.24475,-0.0544 0.50989,-0.10876 0.79544,-0.16316 0.28553,-0.068 0.60506,-0.12916 0.9586,-0.18356 0.36711,-0.0544 0.77503,-0.10197 1.22374,-0.14277 0.4487,-0.0408 0.9518,-0.0612 1.50929,-0.0612"
             inkscape:connector-curvature="0" />
        </g>
        <g
           id="text4173"
           style="font-size:41.770504px;font-style:normal;font-variant:normal;font-weight:normal;font-stretch:normal;text-align:start;line-height:125%;letter-spacing:0px;word-spacing:0px;writing-mode:lr-tb;text-anchor:start;fill:#000000;fill-opacity:1;stroke:none;font-family:Liberation Sans;-inkscape-font-specification:Liberation Sans"
           transform="scale(0.99998621,1.0000138)">
          <path
             id="path7947"
             style="font-weight:bold;text-align:center;text-anchor:middle;font-family:Liberation Serif;-inkscape-font-specification:Liberation Serif Bold"
             d="m 394.8722,606.33562 c -2e-5,1.41411 -0.18358,2.67185 -0.55068,3.77321 -0.36715,1.10138 -0.91783,2.03278 -1.65206,2.79422 -0.72067,0.76144 -1.61128,1.33932 -2.67184,1.73364 -1.0606,0.39432 -2.28434,0.59148 -3.67124,0.59148 -1.52289,0 -2.88941,-0.29234 -4.09955,-0.87702 -1.19655,-0.58468 -2.20954,-1.4549 -3.03896,-2.61066 -0.82943,-1.16935 -1.4617,-2.61745 -1.89681,-4.34429 -0.43511,-1.74043 -0.65266,-3.76641 -0.65266,-6.07794 0,-2.47467 0.28554,-4.60262 0.85662,-6.38387 0.58467,-1.78121 1.35971,-3.2497 2.32511,-4.40548 0.9654,-1.15574 2.07357,-2.00556 3.32451,-2.54947 1.26453,-0.54386 2.57666,-0.8158 3.93638,-0.81583 1.06057,3e-5 2.12795,0.0816 3.20214,0.24475 1.08775,0.16319 2.06675,0.37395 2.93699,0.63227 l 0,6.2207 -1.77444,0 -0.87701,-3.95677 c -0.43513,-0.32631 -0.91783,-0.58466 -1.4481,-0.77504 -0.51671,-0.19034 -1.06059,-0.28552 -1.63166,-0.28554 -0.62548,2e-5 -1.21696,0.20398 -1.77443,0.61187 -0.5439,0.40794 -1.0266,1.01981 -1.4481,1.83562 -0.42152,0.81585 -0.77505,1.84923 -1.06058,3.10015 -0.27195,1.23736 -0.44871,2.69226 -0.53029,4.36469 0.69345,-0.29912 1.3937,-0.53027 2.10076,-0.69345 0.72064,-0.17675 1.48888,-0.26513 2.30472,-0.26515 1.18294,2e-5 2.25032,0.16998 3.20214,0.5099 0.96538,0.32634 1.78801,0.82944 2.46788,1.50928 0.67984,0.66628 1.20333,1.5093 1.57048,2.52908 0.3671,1.01979 0.55066,2.21634 0.55068,3.58965 m -8.6274,6.83258 c 0.99258,0 1.67923,-0.53709 2.05997,-1.61127 0.38071,-1.07417 0.57107,-2.68543 0.57108,-4.83379 -1e-5,-1.15575 -0.0884,-2.11435 -0.26515,-2.8758 -0.17677,-0.77503 -0.41472,-1.3937 -0.71385,-1.85602 -0.28555,-0.46229 -0.61868,-0.78182 -0.99939,-0.9586 -0.38073,-0.19034 -0.77505,-0.28552 -1.18295,-0.28554 -0.62548,2e-5 -1.16937,0.0408 -1.63166,0.12238 -0.46231,0.0816 -0.94501,0.19717 -1.4481,0.34672 l 0,0.10198 c -10e-6,1.90362 0.068,3.58966 0.20396,5.05815 0.13596,1.4685 0.34672,2.70584 0.63226,3.71203 0.29913,1.00619 0.67306,1.77443 1.12177,2.30472 0.4623,0.51669 1.01298,0.77504 1.65206,0.77504"
             inkscape:connector-curvature="0" />
        </g>
        <g
           id="text4177"
           style="font-size:41.770504px;font-style:normal;font-variant:normal;font-weight:normal;font-stretch:normal;text-align:start;line-height:125%;letter-spacing:0px;word-spacing:0px;writing-mode:lr-tb;text-anchor:start;fill:#000000;fill-opacity:1;stroke:none;font-family:Liberation Sans;-inkscape-font-specification:Liberation Sans"
           transform="scale(0.99998621,1.0000138)">
          <path
             id="path7950"
             style="font-weight:bold;text-align:center;text-anchor:middle;font-family:Liberation Serif;-inkscape-font-specification:Liberation Serif Bold"
             d="m 321.27127,587.88195 -1.77443,0 0,-7.81157 17.47916,0 0,1.61126 -10.62619,25.73944 -4.87458,0 11.5236,-22.80245 -10.78936,0 -0.9382,3.26332"
             inkscape:connector-curvature="0" />
        </g>
        <g
           id="text4181"
           style="font-size:41.770504px;font-style:normal;font-variant:normal;font-weight:normal;font-stretch:normal;text-align:start;line-height:125%;letter-spacing:0px;word-spacing:0px;writing-mode:lr-tb;text-anchor:start;fill:#000000;fill-opacity:1;stroke:none;font-family:Liberation Sans;-inkscape-font-specification:Liberation Sans"
           transform="scale(0.99998621,1.0000138)">
          <path
             id="path7953"
             style="font-weight:bold;text-align:center;text-anchor:middle;font-family:Liberation Serif;-inkscape-font-specification:Liberation Serif Bold"
             d="m 301.55421,546.36665 c -1e-5,1.49571 -0.36714,2.77384 -1.10137,3.8344 -0.73426,1.047 -1.76764,1.80844 -3.10015,2.28432 0.72063,0.27196 1.3801,0.62549 1.97839,1.06058 0.59826,0.43513 1.10815,0.95182 1.52968,1.55008 0.42149,0.58469 0.74782,1.25775 0.97899,2.01918 0.23114,0.74785 0.34671,1.57728 0.34673,2.48828 -2e-5,2.58347 -0.74786,4.52786 -2.24353,5.83319 -1.48211,1.30533 -3.79362,1.95799 -6.93456,1.95799 -2.97778,0 -5.21452,-0.63907 -6.7102,-1.9172 -1.48209,-1.29173 -2.22314,-3.24972 -2.22314,-5.87398 0,-0.8974 0.10878,-1.72003 0.32634,-2.46788 0.23115,-0.76143 0.55068,-1.43449 0.9586,-2.01918 0.4215,-0.59827 0.9246,-1.11496 1.50928,-1.55008 0.58467,-0.44869 1.24414,-0.80902 1.97839,-1.08098 -1.31893,-0.50308 -2.33872,-1.27811 -3.05936,-2.32511 -0.72066,-1.04697 -1.08098,-2.3319 -1.08098,-3.8548 0,-1.07415 0.17676,-2.04635 0.53029,-2.91659 0.36712,-0.88379 0.90421,-1.63164 1.61127,-2.24353 0.70704,-0.62545 1.59086,-1.10135 2.65144,-1.42771 1.06057,-0.3399 2.28432,-0.50986 3.67124,-0.50989 1.34611,3e-5 2.53586,0.16999 3.56926,0.50989 1.04696,0.32636 1.92398,0.80226 2.63105,1.42771 0.72063,0.62549 1.26452,1.38013 1.63166,2.26392 0.3671,0.87025 0.55067,1.85604 0.55068,2.95739 m -5.16012,13.23684 c -2e-5,-0.96539 -0.0612,-1.81521 -0.18356,-2.54947 -0.10879,-0.74783 -0.29915,-1.3733 -0.57108,-1.87641 -0.25836,-0.51668 -0.60509,-0.9042 -1.04019,-1.16255 -0.42152,-0.27193 -0.95181,-0.40791 -1.59087,-0.40792 -0.62548,1e-5 -1.14217,0.13599 -1.55007,0.40792 -0.39433,0.25835 -0.71386,0.64587 -0.9586,1.16255 -0.23116,0.50311 -0.39433,1.12858 -0.4895,1.87641 -0.0952,0.73426 -0.14278,1.58408 -0.14277,2.54947 -1e-5,0.92462 0.0476,1.74724 0.14277,2.46789 0.0952,0.70706 0.25834,1.30533 0.4895,1.79483 0.24474,0.4759 0.56427,0.84302 0.9586,1.10137 0.4079,0.24475 0.92459,0.36712 1.55007,0.36712 0.63906,0 1.16935,-0.12237 1.59087,-0.36712 0.4351,-0.25835 0.78183,-0.62547 1.04019,-1.10137 0.27193,-0.4895 0.46229,-1.08777 0.57108,-1.79483 0.12236,-0.72065 0.18354,-1.54327 0.18356,-2.46789 m -0.63227,-13.23684 c -10e-6,-0.73423 -0.0408,-1.41409 -0.12237,-2.03958 -0.0816,-0.62544 -0.23117,-1.16253 -0.44871,-1.61126 -0.20397,-0.46228 -0.48271,-0.81581 -0.83623,-1.06058 -0.33994,-0.25832 -0.77505,-0.38749 -1.30533,-0.38752 -0.5167,3e-5 -0.93821,0.1292 -1.26453,0.38752 -0.32634,0.24477 -0.58469,0.5983 -0.77504,1.06058 -0.19037,0.44873 -0.32634,0.98582 -0.40792,1.61126 -0.068,0.62549 -0.10198,1.30535 -0.10197,2.03958 -1e-5,0.78865 0.034,1.49571 0.10197,2.12116 0.0816,0.62548 0.21755,1.15577 0.40792,1.59087 0.19035,0.43512 0.4487,0.76825 0.77504,0.99939 0.32632,0.23116 0.74783,0.34674 1.26453,0.34673 0.53028,10e-6 0.96539,-0.11557 1.30533,-0.34673 0.35352,-0.23114 0.63226,-0.56427 0.83623,-0.99939 0.21754,-0.4351 0.36711,-0.96539 0.44871,-1.59087 0.0816,-0.62545 0.12236,-1.33251 0.12237,-2.12116"
             inkscape:connector-curvature="0" />
        </g>
        <g
           id="text4185"
           style="font-size:41.770504px;font-style:normal;font-variant:normal;font-weight:normal;font-stretch:normal;text-align:start;line-height:125%;letter-spacing:0px;word-spacing:0px;writing-mode:lr-tb;text-anchor:start;fill:#000000;fill-opacity:1;stroke:none;font-family:Liberation Sans;-inkscape-font-specification:Liberation Sans"
           transform="scale(0.99998621,1.0000138)">
          <path
             id="path7956"
             style="font-weight:bold;text-align:center;text-anchor:middle;font-family:Liberation Serif;-inkscape-font-specification:Liberation Serif Bold"
             d="m 279.96779,485.04627 c -10e-6,-1.40049 0.20395,-2.63783 0.61187,-3.71203 0.42151,-1.08774 1.01978,-1.99196 1.79482,-2.71263 0.78864,-0.73422 1.74044,-1.28491 2.85541,-1.65206 1.11496,-0.38069 2.3659,-0.57105 3.75282,-0.57108 1.57726,3e-5 2.94377,0.27197 4.09955,0.81583 1.16934,0.54392 2.12794,1.38694 2.8758,2.52908 0.76142,1.12858 1.3257,2.56988 1.69284,4.3239 0.36711,1.75405 0.55067,3.83441 0.55069,6.2411 -2e-5,2.63786 -0.29916,4.86099 -0.89741,6.66941 -0.5847,1.79483 -1.38013,3.24973 -2.38631,4.36469 -0.99261,1.10137 -2.14836,1.89681 -3.46727,2.3863 -1.30534,0.4895 -2.67186,0.73425 -4.09955,0.73425 -1.25095,0 -2.37951,-0.0748 -3.3857,-0.22435 -1.00619,-0.14957 -1.99198,-0.36713 -2.95738,-0.65267 l 0,-6.2207 1.77443,0 0.87702,3.95677 c 0.47589,0.33994 1.04017,0.60508 1.69284,0.79544 0.66626,0.19036 1.30533,0.28554 1.91721,0.28554 0.63905,0 1.23733,-0.16996 1.79482,-0.5099 0.55748,-0.35352 1.04697,-0.9178 1.4685,-1.69284 0.43509,-0.77504 0.78862,-1.77443 1.06058,-2.99818 0.28552,-1.23733 0.46908,-2.74662 0.55068,-4.52786 -0.65268,0.23117 -1.32574,0.41473 -2.01918,0.55069 -0.69347,0.13598 -1.42771,0.20397 -2.20274,0.20396 -1.18296,1e-5 -2.26394,-0.17676 -3.24293,-0.53029 -0.9654,-0.36711 -1.80162,-0.8974 -2.50867,-1.59087 -0.69346,-0.70704 -1.23735,-1.58406 -1.63166,-2.63105 -0.38073,-1.04697 -0.57109,-2.25712 -0.57108,-3.63045 m 5.99635,0.0816 c -10e-6,1.06059 0.0748,1.9648 0.22435,2.71263 0.16316,0.73426 0.38071,1.33254 0.65266,1.79483 0.28554,0.46231 0.61867,0.80224 0.9994,1.01978 0.39431,0.20398 0.82941,0.30595 1.30532,0.30594 1.03338,10e-6 2.05317,-0.12236 3.05937,-0.36712 l 0,-0.28554 c -2e-5,-3.92957 -0.23797,-6.88695 -0.71385,-8.87216 -0.46232,-1.98516 -1.28495,-2.97775 -2.46789,-2.97778 -1.06059,3e-5 -1.83563,0.57111 -2.32512,1.71325 -0.4895,1.14218 -0.73425,2.79424 -0.73424,4.95617"
             inkscape:connector-curvature="0" />
        </g>
        <g
           id="text4189"
           style="font-size:41.770504px;font-style:normal;font-variant:normal;font-weight:normal;font-stretch:normal;text-align:start;line-height:125%;letter-spacing:0px;word-spacing:0px;writing-mode:lr-tb;text-anchor:start;fill:#000000;fill-opacity:1;stroke:none;font-family:Liberation Sans;-inkscape-font-specification:Liberation Sans"
           transform="scale(0.99998621,1.0000138)">
          <path
             id="path7959"
             style="font-weight:bold;text-align:center;text-anchor:middle;font-family:Liberation Serif;-inkscape-font-specification:Liberation Serif Bold"
             d="m 296.89721,439.03167 4.75221,0.4895 0,1.75404 -15.3784,0 0,-1.75404 4.73182,-0.4895 0,-20.6201 -4.71142,1.55007 0,-1.73363 7.70959,-4.52786 2.8962,0 0,25.33152"
             inkscape:connector-curvature="0" />
          <path
             id="path7961"
             style="font-weight:bold;text-align:center;text-anchor:middle;font-family:Liberation Serif;-inkscape-font-specification:Liberation Serif Bold"
             d="m 323.10575,427.48768 c -2e-5,2.28433 -0.18358,4.31031 -0.55068,6.07793 -0.35355,1.76764 -0.89743,3.25653 -1.63166,4.46667 -0.73427,1.19656 -1.66567,2.10757 -2.79422,2.73303 -1.12858,0.61188 -2.4611,0.91781 -3.99757,0.91781 -2.8826,0 -5.05815,-1.21014 -6.52664,-3.63044 -1.4685,-2.42029 -2.20274,-5.94196 -2.20274,-10.565 0,-4.52784 0.73424,-7.98832 2.20274,-10.38144 1.46849,-2.40667 3.69842,-3.61002 6.68981,-3.61005 2.88258,3e-5 5.07173,1.18978 6.56743,3.56926 1.49567,2.36593 2.24351,5.84 2.24353,10.42223 m -5.97595,0 c -2e-5,-1.88999 -0.0476,-3.57604 -0.14277,-5.05815 -0.0952,-1.48207 -0.25836,-2.73301 -0.4895,-3.75282 -0.23116,-1.01976 -0.5371,-1.7948 -0.91781,-2.32511 -0.36713,-0.53027 -0.83624,-0.79541 -1.40731,-0.79544 -0.57109,3e-5 -1.04019,0.26517 -1.4073,0.79544 -0.35354,0.53031 -0.63228,1.30535 -0.83623,2.32511 -0.20396,1.01981 -0.34673,2.27075 -0.42831,3.75282 -0.0816,1.48211 -0.12238,3.16816 -0.12237,5.05815 -10e-6,1.90361 0.0408,3.61006 0.12237,5.11933 0.0816,1.4957 0.22435,2.76703 0.42831,3.81401 0.20395,1.03339 0.48269,1.82882 0.83623,2.3863 0.36711,0.55749 0.83621,0.83623 1.4073,0.83623 0.57107,0 1.04018,-0.27874 1.40731,-0.83623 0.38071,-0.55748 0.68665,-1.35291 0.91781,-2.3863 0.23114,-1.04698 0.3943,-2.31831 0.4895,-3.81401 0.0952,-1.50927 0.14275,-3.21572 0.14277,-5.11933"
             inkscape:connector-curvature="0" />
        </g>
        <g
           id="text4193"
           style="font-size:41.770504px;font-style:normal;font-variant:normal;font-weight:normal;font-stretch:normal;text-align:start;line-height:125%;letter-spacing:0px;word-spacing:0px;writing-mode:lr-tb;text-anchor:start;fill:#000000;fill-opacity:1;stroke:none;font-family:Liberation Sans;-inkscape-font-specification:Liberation Sans"
           transform="scale(0.99998621,1.0000138)">
          <path
             id="path7964"
             style="font-weight:bold;text-align:center;text-anchor:middle;font-family:Liberation Serif;-inkscape-font-specification:Liberation Serif Bold"
             d="m 321.88249,396.98919 4.75221,0.4895 0,1.75404 -15.3784,0 0,-1.75404 4.73182,-0.4895 0,-20.6201 -4.71142,1.55007 0,-1.73363 7.70959,-4.52786 2.8962,0 0,25.33152"
             inkscape:connector-curvature="0" />
          <path
             id="path7966"
             style="font-weight:bold;text-align:center;text-anchor:middle;font-family:Liberation Serif;-inkscape-font-specification:Liberation Serif Bold"
             d="m 340.4643,396.98919 4.75221,0.4895 0,1.75404 -15.3784,0 0,-1.75404 4.73181,-0.4895 0,-20.6201 -4.71142,1.55007 0,-1.73363 7.7096,-4.52786 2.8962,0 0,25.33152"
             inkscape:connector-curvature="0" />
        </g>
        <g
           inkscape:transform-center-y="-55.783439"
           inkscape:transform-center-x="-10.509924"
           id="g7387">
          <path
             inkscape:transform-center-x="-12.342683"
             inkscape:transform-center-y="-55.147942"
             sodipodi:nodetypes="czcczc"
             inkscape:connector-curvature="0"
             id="path4097"
             d="m 410.3742,382.12422 c 0,0 -0.73475,17.40589 -4.53993,36.07988 -3.80516,18.67399 -18.77601,69.94435 -18.77601,69.94435 l -5.2471,-1.2916 c 0,0 10.53868,-52.36137 15.83648,-70.66794 5.2978,-18.30657 12.72656,-34.06469 12.72656,-34.06469 z"
             style="opacity:0.5;fill:#000000;fill-opacity:1;fill-rule:nonzero;stroke:none;filter:url(#filter4153)" />
          <path
             style="fill:#000000;fill-opacity:1;fill-rule:nonzero;stroke:none"
             d="m 412.3742,380.12422 c 0,0 -0.73475,17.40589 -4.53993,36.07988 -3.80516,18.67399 -18.77601,69.94435 -18.77601,69.94435 l -5.2471,-1.2916 c 0,0 10.53868,-52.36137 15.83648,-70.66794 5.2978,-18.30657 12.72656,-34.06469 12.72656,-34.06469 z"
             id="rect3029"
             inkscape:connector-curvature="0"
             sodipodi:nodetypes="czcczc"
             inkscape:transform-center-y="-55.147942"
             inkscape:transform-center-x="-12.342683" />
        </g>
        <g
           inkscape:transform-center-y="25.87058"
           inkscape:transform-center-x="-33.146681"
           id="g7391">
          <path
             inkscape:transform-center-y="24.431265"
             inkscape:transform-center-x="-34.056027"
             sodipodi:nodetypes="cccccccc"
             inkscape:connector-curvature="0"
             id="path4135"
             d="m 382.64599,495.38033 c 24.12795,17.49795 33.49256,23.88612 47.41445,34.14461 -0.12427,1.95259 0.25494,6.02204 2.45077,7.64005 2.85982,2.10729 13.96335,2.07703 22.5835,7.07787 -7.35164,-6.8587 -10.45654,-17.19488 -13.43223,-19.49778 -2.19582,-1.61801 -6.19474,-0.77496 -8.02281,-0.0778 -13.94836,-10.27798 -22.65606,-17.48726 -46.65701,-35.17261 z"
             style="opacity:0.5;fill:#000000;fill-opacity:1;fill-rule:nonzero;stroke:none;filter:url(#filter4169)" />
          <path
             style="fill:#000000;fill-opacity:1;fill-rule:nonzero;stroke:none"
             d="m 384.64599,493.38033 c 24.12795,17.49795 33.49256,23.88612 47.41445,34.14461 -0.12427,1.95259 0.25494,6.02204 2.45077,7.64005 2.85982,2.10729 13.96335,2.07703 22.5835,7.07787 -7.35164,-6.8587 -10.45654,-17.19488 -13.43223,-19.49778 -2.19582,-1.61801 -6.19474,-0.77496 -8.02281,-0.0778 -13.94836,-10.27798 -22.65606,-17.48726 -46.65701,-35.17261 z"
             id="path3032"
             inkscape:connector-curvature="0"
             sodipodi:nodetypes="cccccccc"
             inkscape:transform-center-x="-34.056027"
             inkscape:transform-center-y="24.431265" />
        </g>
        <g
           id="g7370">
          <path
             style="fill:none;stroke:#000000;stroke-width:0.99999994;stroke-linecap:round;stroke-linejoin:round;stroke-opacity:1"
             d="m 276.50992,363.00868 c 0,0 70.46018,-8.28172 109.24008,-8.28172 38.7799,0 109.24007,8.28172 109.24007,8.28172 0,0 7.0996,82.19197 7.0996,127.42882 0,45.23683 -7.0996,127.42883 -7.0996,127.42883 0,0 -70.46017,8.2817 -109.24007,8.2817 -38.7799,0 -109.24008,-8.2817 -109.24008,-8.2817 0,0 -7.0996,-82.192 -7.0996,-127.42883 0,-45.23685 7.0996,-127.42882 7.0996,-127.42882 z"
             id="path3039"
             inkscape:connector-curvature="0"
             sodipodi:nodetypes="czczczczc" />
          <path
             sodipodi:nodetypes="czczczczc"
             inkscape:connector-curvature="0"
             id="path3809"
             d="m 280.09628,367.18973 c 0,0 68.14696,-8.00999 105.65372,-8.00999 37.50675,0 105.65371,8.00999 105.65371,8.00999 0,0 6.86652,79.49518 6.86652,123.24777 0,43.75257 -6.86652,123.24778 -6.86652,123.24778 0,0 -68.14696,8.00997 -105.65371,8.00997 -37.50676,0 -105.65372,-8.00997 -105.65372,-8.00997 0,0 -6.86653,-79.49521 -6.86653,-123.24778 0,-43.75259 6.86653,-123.24777 6.86653,-123.24777 z"
             style="fill:none;stroke:#000000;stroke-width:0.99999994;stroke-linecap:round;stroke-linejoin:round;stroke-opacity:1" />
          <g
             id="g7354">
            <path
               inkscape:connector-curvature="0"
               transform="translate(200.84901,277.40943)"
               id="path7352"
               d="m 115.9375,86 c 1.12823,-0.106313 0.90583,-0.112135 2.0625,-0.21875 0.71712,-0.0661 1.55436,-0.121472 2.28125,-0.1875 L 118,81.28125 c -0.71691,0.06516 -1.54231,0.12227 -2.25,0.1875 -1.15589,0.106541 -0.93402,0.112491 -2.0625,0.21875 l 2.25,4.3125 z"
               style="font-size:medium;font-style:normal;font-variant:normal;font-weight:normal;font-stretch:normal;text-indent:0;text-align:start;text-decoration:none;line-height:normal;letter-spacing:normal;word-spacing:normal;text-transform:none;direction:ltr;block-progression:tb;writing-mode:lr-tb;text-anchor:start;baseline-shift:baseline;color:#000000;fill:#000000;fill-opacity:1;stroke:none;stroke-width:4;marker:none;visibility:visible;display:inline;overflow:visible;enable-background:accumulate;font-family:Sans;-inkscape-font-specification:Sans" />
            <path
               inkscape:connector-curvature="0"
               transform="translate(200.84901,277.40943)"
               id="path7350"
               d="m 75.28125,144.25 c 0.0965,-1.50433 0.152539,-3.11686 0.25,-4.59375 l -3.6875,-2.4375 c -0.09747,1.4775 -0.184707,3.08969 -0.28125,4.59375 l 3.71875,2.4375 z"
               style="font-size:medium;font-style:normal;font-variant:normal;font-weight:normal;font-stretch:normal;text-indent:0;text-align:start;text-decoration:none;line-height:normal;letter-spacing:normal;word-spacing:normal;text-transform:none;direction:ltr;block-progression:tb;writing-mode:lr-tb;text-anchor:start;baseline-shift:baseline;color:#000000;fill:#000000;fill-opacity:1;stroke:none;stroke-width:4;marker:none;visibility:visible;display:inline;overflow:visible;enable-background:accumulate;font-family:Sans;-inkscape-font-specification:Sans" />
            <path
               inkscape:connector-curvature="0"
               transform="translate(200.84901,277.40943)"
               id="path7348"
               d="m 72.40625,214.5 c -0.0013,-0.4325 -0.03125,-1.04292 -0.03125,-1.46875 0,-0.73395 0.0587,-1.77773 0.0625,-2.53125 l -3.8125,0 c -0.0037,0.75289 -0.0625,1.79731 -0.0625,2.53125 0,0.42583 0.03,1.03647 0.03125,1.46875 l 3.8125,0 z"
               style="font-size:medium;font-style:normal;font-variant:normal;font-weight:normal;font-stretch:normal;text-indent:0;text-align:start;text-decoration:none;line-height:normal;letter-spacing:normal;word-spacing:normal;text-transform:none;direction:ltr;block-progression:tb;writing-mode:lr-tb;text-anchor:start;baseline-shift:baseline;color:#000000;fill:#000000;fill-opacity:1;stroke:none;stroke-width:4;marker:none;visibility:visible;display:inline;overflow:visible;enable-background:accumulate;font-family:Sans;-inkscape-font-specification:Sans" />
            <path
               inkscape:connector-curvature="0"
               transform="translate(200.84901,277.40943)"
               id="path7346"
               d="m 75.59375,287.375 c -0.09758,-1.47043 -0.153244,-3.09477 -0.25,-4.59375 l -3.71875,2.4375 c 0.09679,1.49887 0.183661,3.12249 0.28125,4.59375 l 3.6875,-2.4375 z"
               style="font-size:medium;font-style:normal;font-variant:normal;font-weight:normal;font-stretch:normal;text-indent:0;text-align:start;text-decoration:none;line-height:normal;letter-spacing:normal;word-spacing:normal;text-transform:none;direction:ltr;block-progression:tb;writing-mode:lr-tb;text-anchor:start;baseline-shift:baseline;color:#000000;fill:#000000;fill-opacity:1;stroke:none;stroke-width:4;marker:none;visibility:visible;display:inline;overflow:visible;enable-background:accumulate;font-family:Sans;-inkscape-font-specification:Sans" />
            <path
               inkscape:connector-curvature="0"
               transform="translate(200.84901,277.40943)"
               id="path7344"
               d="m 120.28125,340.46875 c -0.72689,-0.066 -1.56413,-0.1214 -2.28125,-0.1875 -1.15667,-0.10662 -0.93427,-0.11244 -2.0625,-0.21875 l -2.25,4.3125 c 1.12848,0.10626 0.90661,0.11221 2.0625,0.21875 0.70769,0.0652 1.53309,0.12234 2.25,0.1875 l 2.28125,-4.3125 z"
               style="font-size:medium;font-style:normal;font-variant:normal;font-weight:normal;font-stretch:normal;text-indent:0;text-align:start;text-decoration:none;line-height:normal;letter-spacing:normal;word-spacing:normal;text-transform:none;direction:ltr;block-progression:tb;writing-mode:lr-tb;text-anchor:start;baseline-shift:baseline;color:#000000;fill:#000000;fill-opacity:1;stroke:none;stroke-width:4;marker:none;visibility:visible;display:inline;overflow:visible;enable-background:accumulate;font-family:Sans;-inkscape-font-specification:Sans" />
            <path
               inkscape:connector-curvature="0"
               transform="translate(200.84901,277.40943)"
               id="path7342"
               d="m 186.90625,344.25 c -0.62816,0.004 -1.38774,0.0313 -2,0.0313 -0.61226,0 -1.37184,-0.027 -2,-0.0313 l 0,4.4375 c 0.6274,0.004 1.38798,0.0625 2,0.0625 0.61323,0 1.37133,-0.0584 2,-0.0625 l 0,-4.4375 z"
               style="font-size:medium;font-style:normal;font-variant:normal;font-weight:normal;font-stretch:normal;text-indent:0;text-align:start;text-decoration:none;line-height:normal;letter-spacing:normal;word-spacing:normal;text-transform:none;direction:ltr;block-progression:tb;writing-mode:lr-tb;text-anchor:start;baseline-shift:baseline;color:#000000;fill:#000000;fill-opacity:1;stroke:none;stroke-width:4;marker:none;visibility:visible;display:inline;overflow:visible;enable-background:accumulate;font-family:Sans;-inkscape-font-specification:Sans" />
            <path
               inkscape:connector-curvature="0"
               transform="translate(200.84901,277.40943)"
               id="path7340"
               d="m 254.03125,340.0625 c -1.22575,0.11572 -0.99032,0.10264 -2.25,0.21875 -0.63826,0.0588 -1.38521,0.0975 -2.03125,0.15625 L 252,344.75 c 0.6561,-0.0597 1.41417,-0.0965 2.0625,-0.15625 1.25984,-0.11612 1.02291,-0.10299 2.25,-0.21875 l -2.28125,-4.3125 z"
               style="font-size:medium;font-style:normal;font-variant:normal;font-weight:normal;font-stretch:normal;text-indent:0;text-align:start;text-decoration:none;line-height:normal;letter-spacing:normal;word-spacing:normal;text-transform:none;direction:ltr;block-progression:tb;writing-mode:lr-tb;text-anchor:start;baseline-shift:baseline;color:#000000;fill:#000000;fill-opacity:1;stroke:none;stroke-width:4;marker:none;visibility:visible;display:inline;overflow:visible;enable-background:accumulate;font-family:Sans;-inkscape-font-specification:Sans" />
            <path
               inkscape:connector-curvature="0"
               transform="translate(200.84901,277.40943)"
               id="path7338"
               d="m 294.4375,283.28125 c -0.0975,1.50628 -0.1517,3.14827 -0.25,4.625 l 3.6875,2.40625 c 0.0976,-1.46801 0.18434,-3.09758 0.28125,-4.59375 l -3.71875,-2.4375 z"
               style="font-size:medium;font-style:normal;font-variant:normal;font-weight:normal;font-stretch:normal;text-indent:0;text-align:start;text-decoration:none;line-height:normal;letter-spacing:normal;word-spacing:normal;text-transform:none;direction:ltr;block-progression:tb;writing-mode:lr-tb;text-anchor:start;baseline-shift:baseline;color:#000000;fill:#000000;fill-opacity:1;stroke:none;stroke-width:4;marker:none;visibility:visible;display:inline;overflow:visible;enable-background:accumulate;font-family:Sans;-inkscape-font-specification:Sans" />
            <path
               inkscape:connector-curvature="0"
               transform="translate(200.84901,277.40943)"
               id="path7336"
               d="m 297.34375,210.5 c 0.004,0.75354 0.0625,1.79728 0.0625,2.53125 0,0.42584 -0.03,1.03624 -0.0313,1.46875 l 3.84375,0 c 10e-4,-0.43226 0.0313,-1.04294 0.0313,-1.46875 0,-0.73392 -0.0588,-1.77838 -0.0625,-2.53125 l -3.84375,0 z"
               style="font-size:medium;font-style:normal;font-variant:normal;font-weight:normal;font-stretch:normal;text-indent:0;text-align:start;text-decoration:none;line-height:normal;letter-spacing:normal;word-spacing:normal;text-transform:none;direction:ltr;block-progression:tb;writing-mode:lr-tb;text-anchor:start;baseline-shift:baseline;color:#000000;fill:#000000;fill-opacity:1;stroke:none;stroke-width:4;marker:none;visibility:visible;display:inline;overflow:visible;enable-background:accumulate;font-family:Sans;-inkscape-font-specification:Sans" />
            <path
               inkscape:connector-curvature="0"
               transform="translate(200.84901,277.40943)"
               id="path7334"
               d="m 294.25,139.15625 c 0.0975,1.47359 0.15336,3.09215 0.25,4.59375 l 3.71875,-2.4375 c -0.0967,-1.50147 -0.18371,-3.11938 -0.28125,-4.59375 l -3.6875,2.4375 z"
               style="font-size:medium;font-style:normal;font-variant:normal;font-weight:normal;font-stretch:normal;text-indent:0;text-align:start;text-decoration:none;line-height:normal;letter-spacing:normal;word-spacing:normal;text-transform:none;direction:ltr;block-progression:tb;writing-mode:lr-tb;text-anchor:start;baseline-shift:baseline;color:#000000;fill:#000000;fill-opacity:1;stroke:none;stroke-width:4;marker:none;visibility:visible;display:inline;overflow:visible;enable-background:accumulate;font-family:Sans;-inkscape-font-specification:Sans" />
            <path
               inkscape:connector-curvature="0"
               transform="translate(200.84901,277.40943)"
               id="path7332"
               d="m 249.75,85.625 c 0.64604,0.05878 1.39299,0.09742 2.03125,0.15625 1.25968,0.11611 1.02425,0.10303 2.25,0.21875 l 2.28125,-4.3125 c -1.22709,-0.115757 -0.99016,-0.102628 -2.25,-0.21875 C 253.41417,81.40899 252.6561,81.37221 252,81.3125 l -2.25,4.3125 z"
               style="font-size:medium;font-style:normal;font-variant:normal;font-weight:normal;font-stretch:normal;text-indent:0;text-align:start;text-decoration:none;line-height:normal;letter-spacing:normal;word-spacing:normal;text-transform:none;direction:ltr;block-progression:tb;writing-mode:lr-tb;text-anchor:start;baseline-shift:baseline;color:#000000;fill:#000000;fill-opacity:1;stroke:none;stroke-width:4;marker:none;visibility:visible;display:inline;overflow:visible;enable-background:accumulate;font-family:Sans;-inkscape-font-specification:Sans" />
            <path
               inkscape:connector-curvature="0"
               transform="translate(200.84901,277.40943)"
               id="path7305"
               d="m 184.90625,77.3125 c -0.61202,0 -1.3726,0.05844 -2,0.0625 l 0,4.4375 c 0.62816,-0.0042 1.38774,-0.03125 2,-0.03125 0.61226,0 1.37184,0.02705 2,0.03125 l 0,-4.4375 c -0.62867,-0.0041 -1.38677,-0.0625 -2,-0.0625 z"
               style="font-size:medium;font-style:normal;font-variant:normal;font-weight:normal;font-stretch:normal;text-indent:0;text-align:start;text-decoration:none;line-height:normal;letter-spacing:normal;word-spacing:normal;text-transform:none;direction:ltr;block-progression:tb;writing-mode:lr-tb;text-anchor:start;baseline-shift:baseline;color:#000000;fill:#000000;fill-opacity:1;stroke:none;stroke-width:4;marker:none;visibility:visible;display:inline;overflow:visible;enable-background:accumulate;font-family:Sans;-inkscape-font-specification:Sans" />
          </g>
        </g>
        <g
           id="g7395">
          <path
             transform="matrix(0.95485871,0,0,0.95488504,209.48829,290.42572)"
             d="m 193,211.55612 a 10.5,10.5 0 0 1 -10.5,10.5 10.5,10.5 0 0 1 -10.5,-10.5 10.5,10.5 0 0 1 10.5,-10.5 10.5,10.5 0 0 1 10.5,10.5 z"
             sodipodi:ry="10.5"
             sodipodi:rx="10.5"
             sodipodi:cy="211.55612"
             sodipodi:cx="182.5"
             id="path4055"
             style="opacity:0.5;fill:#000000;fill-opacity:1;fill-rule:nonzero;stroke:none;filter:url(#filter4093)"
             sodipodi:type="arc" />
          <path
             sodipodi:type="arc"
             style="fill:url(#radialGradient4053);fill-opacity:1;fill-rule:nonzero;stroke:none"
             id="path4197"
             sodipodi:cx="182.5"
             sodipodi:cy="211.55612"
             sodipodi:rx="10.5"
             sodipodi:ry="10.5"
             d="m 193,211.55612 a 10.5,10.5 0 0 1 -10.5,10.5 10.5,10.5 0 0 1 -10.5,-10.5 10.5,10.5 0 0 1 10.5,-10.5 10.5,10.5 0 0 1 10.5,10.5 z"
             transform="matrix(0.95485871,0,0,0.95488504,211.48829,288.42572)" />
        </g>
      </g>
      <g
         style="display:inline"
         inkscape:label="light"
         id="layer3">
        <path
           transform="translate(-200.84901,-277.40943)"
           sodipodi:nodetypes="czczczczc"
           inkscape:connector-curvature="0"
           id="path6834"
           d="m 220.3618,299.70669 c 0,0 106.6759,-12.39575 165.3882,-12.39575 58.7123,0 165.38819,12.39575 165.38819,12.39575 0,0 10.74872,123.02196 10.74872,190.73081 0,67.70885 -10.74872,190.7308 -10.74872,190.7308 0,0 -106.67589,12.39576 -165.38819,12.39576 -58.7123,0 -165.3882,-12.39576 -165.3882,-12.39576 0,0 -10.74872,-123.02195 -10.74872,-190.7308 0,-67.70885 10.74872,-190.73081 10.74872,-190.73081 z"
           style="opacity:0.2;fill:url(#linearGradient6842);fill-opacity:1;fill-rule:nonzero;stroke:none;display:inline" />
      </g>
      <g
         style="display:none"
         inkscape:label="guides"
         id="layer2">
        <path
           inkscape:connector-curvature="0"
           inkscape:original-d="M 1,1.0561218 369,426.05612"
           inkscape:path-effect="#path-effect4086"
           id="path4084"
           d="M 1,1.0561218 369,426.05612"
           style="fill:none;stroke:#000000;stroke-width:1px;stroke-linecap:butt;stroke-linejoin:miter;stroke-opacity:1" />
        <path
           sodipodi:nodetypes="cc"
           inkscape:connector-curvature="0"
           inkscape:original-d="M 369,-0.94387817 0,429.05612"
           inkscape:path-effect="#path-effect4090"
           id="path4088"
           d="M 369,-0.94387817 0,429.05612"
           style="fill:none;stroke:#000000;stroke-width:1px;stroke-linecap:butt;stroke-linejoin:miter;stroke-opacity:1" />
        <path
           transform="translate(-200.84901,-277.40943)"
           inkscape:connector-curvature="0"
           inkscape:original-d="m 385.75,266.46555 0,465"
           inkscape:path-effect="#path-effect4094"
           id="path4092"
           d="m 385.75,266.46555 0,465"
           style="fill:none;stroke:#000000;stroke-width:1px;stroke-linecap:butt;stroke-linejoin:miter;stroke-opacity:1" />
        <path
           transform="translate(-200.84901,-277.40943)"
           style="fill:none;stroke:#000000;stroke-width:1px;stroke-linecap:butt;stroke-linejoin:miter;stroke-opacity:1"
           d="m 618.25,490.43749 -465,0"
           id="path4096"
           inkscape:path-effect="#path-effect4098"
           inkscape:original-d="m 618.25,490.43749 -465,0"
           inkscape:connector-curvature="0" />
      </g>
    </g>
  </g>
</svg>
